<?xml version="1.0" encoding="utf-8"?>
<!-- Generator: Adobe Illustrator 27.4.0, SVG Export Plug-In . SVG Version: 6.00 Build 0)  -->
<svg version="1.1" id="Camada_1" xmlns="http://www.w3.org/2000/svg" xmlns:xlink="http://www.w3.org/1999/xlink" x="0px" y="0px"
	 viewBox="0 0 1080 1080" style="enable-background:new 0 0 1080 1080;" xml:space="preserve">
<style type="text/css">
	.st0{fill:#FEFEFE;}
	.st1{fill:#FDFDFD;}
	.st2{fill:#FBFBFB;}
	.st3{fill:#F7F7F7;}
	.st4{fill:#EBEBEB;}
	.st5{fill:#ECECEC;}
	.st6{fill:#060606;}
	.st7{fill:#080808;}
	.st8{fill:#333333;}
	.st9{fill:#919191;}
	.st10{fill:#373737;}
	.st11{fill:#B4B4B4;}
	.st12{fill:#242424;}
	.st13{fill:#050505;}
	.st14{fill:#010101;}
	.st15{fill:#FAFAFA;}
	.st16{fill:#FCFCFC;}
	.st17{fill:#030303;}
	.st18{fill:#111111;}
	.st19{fill:#7C7C7C;}
	.st20{fill:#AEAEAE;}
	.st21{fill:#515151;}
	.st22{fill:#727272;}
	.st23{fill:#565656;}
	.st24{fill:#141414;}
	.st25{fill:#161616;}
	.st26{fill:#181818;}
	.st27{fill:#202020;}
	.st28{fill:#6A6A6A;}
	.st29{fill:#454545;}
	.st30{fill:#6B6B6B;}
	.st31{fill:#545454;}
	.st32{fill:#2F2F2F;}
	.st33{fill:#313131;}
	.st34{fill:#414141;}
	.st35{fill:#555555;}
	.st36{fill:#828282;}
	.st37{fill:#040404;}
	.st38{fill:#5C5C5C;}
	.st39{fill:#2D2D2D;}
	.st40{fill:#3C3C3C;}
	.st41{fill:#9A9A9A;}
	.st42{fill:#5D5D5D;}
	.st43{fill:#424242;}
	.st44{fill:#020202;}
	.st45{fill:#444444;}
	.st46{fill:#767676;}
	.st47{fill:#AFAFAF;}
</style>
<g>
	<path class="st0" d="M656.9,395.8c1.7-0.5,2.1-2.8,4.5-2.6c1.2,2.6,0.2,5.4-0.9,7.8c-9,19.6-11.3,40.6-12.5,61.6
		c-1.7,25.7-14.6,43.9-35.2,57.8c-6.6,4.5-13.5,8.7-21.5,11.6c-0.5-4.2,2.4-7.3,1.4-11.1c-3.3,2.4-5.2,5.7-6.4,9
		c-2.1,5.2-5.9,7.6-10.9,9c-13.2,4.2-26.9,8.3-40.6,9c-19.4,1.2-38-4.2-55.7-11.3c-5.2-2.1-5.2-9.2-9.2-12.7
		c-0.5-0.2-1.2-0.7-1.4-1.2c-0.5,1.4-0.5,2.6,0.2,4c-0.2,1.7,1.4,3.5,0,4.7c-1.4,1.4-3.3-0.2-4.7-0.9c-10.9-5.2-20.8-12-29.7-20.3
		c-15.8-14.4-21.2-32.8-22.4-53.3c-0.9-18.4-3.5-36.4-11.3-53.3c-1.7-3.5-1.7-5.4-1.4-9.9c2.6-1.2,3.1,2.8,5.7,2.1
		c1.4-2.1-0.2-3.8-1.4-5c-6.6-6.6-6.6-15.1-6.8-23.4c-0.9-26,0.2-51.7,1.2-77.7c0.9-27.6-1.7-55-10.1-81.2
		c-14.4-43.4,11.8-77.7,47-89.9c8-2.8,16.5-4.7,25-5.4c6.1-0.5,12.5-1.2,18.6-0.5c2.1,0,4,0.9,6.1,1.4c-0.7-0.2-1.7-0.2-2.4-0.7
		c-0.7-0.2-1.7-0.7-2.4-0.7c-3.3,0-6.6,0-9.7-1.7c-38.9-3.1-78.8,14.2-94.4,59.2c-0.5,1.2-1.2,2.4-1.7,3.3c-1.9-0.2-1.7-1.4-1.9-2.4
		c-4.5-45.6,18.4-93.5,71.8-106.5c12.5-3.1,24.8,0.7,36.8,3.8c18.2,5,34,14.2,48.6,25.7c0.7,0,1.2,0.5,1.9,0.5
		c-0.9-0.5-1.2-1.4-1.9-2.1c-23.8-23.4-53.1-34.7-87.3-38c13.9-5.7,26.9-8.5,40.1-11.3c43.4-9,73.9,9.9,96.5,45.3
		c1.7,1.4,1.9,3.5,3.1,5.2c0.5,1.7,1.2,3.3,1.7,5c1.2,1.4,1.4,3.1,1.2,5c0.2,0.9,0.9,1.7,1.2,2.6c0-0.9-0.7-1.7-0.9-2.4
		c-0.2-1.7,0-3.5-1.2-5c-0.5-1.7-1.2-3.3-1.7-5c-0.9-1.9-2.1-3.5-1.9-5.7c-8-21-23.4-35.4-42.7-47.2c29.5-0.9,52.6,9.9,69.9,32.8
		c6.8,9,11.3,19.1,14.6,30c1.7,1.9,1.4,4.2,2.1,6.4c0,2.8,1.2,5.4,0.7,8c0,0.9,0.7,0.2,0.7,0.2c-1.2-3.1-0.9-6.6-1.9-9.7
		c-0.9-2.6,0.2-5.2-0.7-7.6c-2.6-17.5-11.3-31.6-22.7-45.1c5.9,0,20.8,7.6,28.3,13.9c17,14.4,26.2,33.3,30.4,54.8
		c0.5,2.6-0.2,4.7-1.4,6.8c-2.1,4-4,7.8-5.7,12c8-6.4,13-15.3,19.1-24.5c6.1,10.6,8.3,21,8.7,31.9c1.2,19.1-3.8,37.5-8,56.2
		c-7.3,33.8-11.1,67.5-8.7,102c1.7,22.7,1.2,45.3,0,68c-0.2,2.6-0.7,5-2.4,7.1c-2.1,2.8-3.8,6.1-5.7,9.2
		C654.5,395.8,654.3,397.2,656.9,395.8z"/>
	<path class="st0" d="M402,849c-1.9-1.2-3.1-1.7-4-2.6c-5.7-6.6-3.8-13,4.5-14.9c3.3-0.7,6.8-1.4,10.1-0.9c5.2,0.9,8.3-0.9,11.6-4.7
		c10.9-13.2,24.3-23.6,39.2-32.3c26.9-15.8,56.7-24.5,85.4-35.9c27.1-10.6,54.8-20.8,81.9-31.4c4.5-1.7,7.6-1.2,11.1,1.9
		c6.6,5.9,10.6,12.7,11.8,21.5c0.5,3.3-0.5,5.2-3.8,6.4c-45.6,17.5-91.1,35.4-137.1,51.7c-6.4,2.4-11.1,0.9-14.6-4.2
		c-2.6-4.2-5.9-4.5-9.9-3.3c-15.8,4.7-37.8,18.9-49.3,31.9c19.8,1.4,39.2,2.8,58.8,3.8c45.6,2.6,91.1,1.7,136.4-0.7
		c10.9-0.7,22-2.1,33-0.5c10.4,1.7,16.5,6.4,17,13.2c0.5,7.1-4.2,12-14.6,15.6c-7.3,2.4-14.9,3.1-22.2,3.5
		c-51.5,4.5-102.9,5.7-154.4,1.4c-15.6-1.4-31.2-3.5-47-5.7c-10.9-1.7-21.2-4.5-31.6-7.6c-2.8-0.9-5-0.2-7.1,1.2
		c-9.9,5.9-20.8,9.4-32.3,10.1c-1.9,0.2-3.8,0-5.9,0c-2.4,0-4-1.4-4.2-4c-0.2-2.8,1.9-3.8,4-4c5.9-0.9,12-1.7,17.9-2.8
		C391.8,854.7,396.3,852.6,402,849z"/>
	<path class="st0" d="M76.2,646.5c0-19.8,0-39.7,0-59.5c0-8.7,1.9-11.1,10.4-11.1c26.7-0.2,53.6-0.2,80.3,0
		c15.6,0.2,25.7,10.9,25.7,26.4c0,28.1,0,56.2,0,84c0,13.9-8.5,24.1-22.4,25.3c-11.1,0.9-22.4,0.5-33.5,0.7c-18.2,0-36.4,0-54.3,0
		c-4.7,0-6.4-0.7-6.1-5.9C76.5,686.6,76.2,666.6,76.2,646.5L76.2,646.5z"/>
	<path class="st0" d="M221.2,659c0-8.7,0-17.2,0-26c0-16.8,8.3-26.4,25-27.4c14.9-0.7,29.7-0.7,44.6,0c13,0.7,26,8.3,25,27.6
		c-0.7,17.7-0.2,35.4-0.2,53.1c0,14.2-7.6,23.6-21.7,25c-17.2,1.9-34.5,1.9-51.7,0c-13.7-1.7-21.2-11.1-21.2-24.8
		C221.2,677.7,221.2,668.5,221.2,659z"/>
	<path class="st0" d="M344.4,658.8c0-16.3,0-32.3,0-48.6c0-3.5,0.7-4.7,4.5-4.7c21.5,0.2,42.7,0,64,0.2
		c16.3,0.2,26.4,10.6,26.4,26.9c0,19.1,0,38.5,0,57.6c-0.2,16.3-9.9,24.5-26,22.4c-4.2-0.5-2.6-3.3-2.6-5.2c-0.2-23.1,0-46,0-69.2
		c0-1.9,0-3.8,0-5.9c-0.2-12.5-5.2-17.7-17.7-17.9c-6.1-0.2-14.4-2.1-18.2,0.9c-4,3.3-1.2,11.8-1.2,17.9c-0.2,18.2,0,36.4,0,54.3
		c0,18.4-5.9,24.1-24.3,25c-3.8,0.2-4.7-0.9-4.7-4.5C344.4,691.6,344.4,675.3,344.4,658.8z"/>
	<path class="st0" d="M537.5,646.3c0-19.8,0-39.7,0-59.5c0-9,1.9-10.6,10.6-10.9c25.5-0.9,51,0,76.5,0c9.4,0,11.6,2.1,11.8,12
		c0.2,9-0.2,17.7,0.2,26.4c0.2,4.5-2.1,4.2-5.2,4.2c-2.8,0-5.7,0.5-5.4-4c0.2-5.2,0.2-10.4-0.2-15.6c-0.5-8-4.5-12.7-12-13.7
		c-14.9-1.9-29.7-0.5-44.6-0.9c-3.1,0-2.8,1.9-2.8,3.8c0,15.3,0,30.7,0,46c0,3.1,0.9,4,4,4c14.6,0.5,24.1-5.9,27.4-20.1
		c0.9-4.2,3.3-3.5,6.1-3.5c3.5-0.2,3.1,2.1,3.1,4.2c0,15.3,0,30.7,0,46c0,1.9,0.9,4.5-2.8,4.2c-2.6-0.2-5.2,0.5-6.4-3.5
		c-3.8-13.2-14.2-19.8-27.9-18.9c-3.8,0.2-3.3,2.4-3.3,4.7c0,12.5,0,25,0,37.5c0,17-9,24.8-25.7,23.6c-4.2-0.2-2.8-3.1-2.8-5
		C537.2,687.3,537.5,666.8,537.5,646.3L537.5,646.3z"/>
	<path class="st0" d="M659,659c0-8.7,0-17.7,0-26.4c0-15.3,9.9-26.2,25.5-26.7c14.9-0.5,29.7-0.5,44.6,0
		c14.9,0.5,24.8,10.9,24.8,25.7c0,5.4,1.9,12.5-0.9,15.6c-3.3,3.5-10.6,1.2-16.1,1.2c-14.9,0.2-29.7,0-44.6,0c-3.3,0-5,0.2-5,4.2
		c0.2,11.6,0,23.4,0.2,34.9c0.2,10.1,4,14.4,14.2,16.1c6.8,0.9,13.7,1.2,20.5-0.5c8.3-1.9,11.6-5.7,12-14.2c0.2-2.8,0.5-5.7,0-8.5
		c-0.9-5.4,1.7-6.4,6.4-6.1c3.1,0.2,4.2,0.9,4,4c-0.2,4.5,0,9-0.2,13.7c-0.5,11.1-7.1,18.6-18.4,20.1c-14.6,1.7-29.3,1.4-43.9,0.2
		c-14.4-1.2-23.4-12-23.4-26.7C659,676.7,659,667.8,659,659z"/>
	<path class="st0" d="M935.2,667.8c-10.6,13.2-21,25.7-31.2,38.5c-4.5,5.7-10.4,6.4-16.8,6.1c-1.4,0-3.3,0-3.5-1.9
		c-0.2-1.9,1.4-2.6,3.1-2.6c4,0,6.1-2.8,8.3-5.4c10.6-13.2,21-26.9,31.9-40.1c2.1-2.8,1.9-4.5,0-7.1c-9.4-13.2-18.4-26.4-27.6-39.9
		c-2.1-3.1-4.5-5.2-8.3-5.7c-1.2-0.2-2.1-0.5-1.9-2.1c0.2-1.2,0.9-1.7,2.1-2.1c14.2-4.7,34.2,1.9,42.5,14.4
		c3.8,5.4,7.8,10.9,11.1,16.8c2.8,5.2,4.5,3.8,7.1,0c5.9-8.7,12-17.2,19.1-25.3c4.7-5.4,10.6-5.9,17-5.7c1.7,0,2.8,0.7,2.8,2.6
		c0,1.9-1.7,1.7-2.8,1.9c-3.5,0.2-5.7,2.4-7.8,5.2c-7.8,10.6-15.6,21.2-23.6,31.6c-2.1,2.6-2.1,4.5-0.2,7.3
		c10.6,14.9,21,30,31.4,45.1c3.3,5,7.1,9.2,13.9,9c1.2,0,2.1,0.2,2.1,1.7c0,1.7-0.7,2.1-2.1,2.6c-15.3,5.2-38-2.4-47.2-16.1
		C948.2,686.9,941.8,677.4,935.2,667.8z"/>
	<path class="st0" d="M805.1,636.6c0,17.7,0,35.4,0,53.1c0,13,0.5,13.7,12.5,18.4c1.2,0.5,2.1,0.9,2.1,2.1c0,1.7-1.2,2.4-2.6,2.4
		c-10.1,0-20.3,1.2-30.2-2.4c-5.9-2.1-9.7-6.4-10.4-13c-0.2-2.6-0.7-5.2-0.7-7.8c0-30.4-0.2-60.9,0-91.1c0-17,5.9-22.9,22.4-24.5
		c4.7-0.5,6.8,0.2,6.6,5.9C804.9,598.8,805.1,617.7,805.1,636.6z"/>
	<path class="st0" d="M1002.9,774.9c-3.3,7.6-7.8,9.7-15.1,9.7c-125.3-0.2-250.9-0.2-376.3-0.2c-2.4,0-4.7,0-6.8,0
		c9.9-4.7,19.1-9.7,30.7-9.7c120.1,0.2,240.1,0.2,360.2,0.2C997.7,774.9,1000.1,774.9,1002.9,774.9z"/>
	<path class="st0" d="M866.3,650.5c0,13.2,0.2,26.2,0,39.4c-0.5,19.1-9.4,22.2-25.7,22.9c-2.6,0-3.3-1.2-3.3-3.5
		c0-28.3-0.2-56.4,0.5-84.7c0.5-18.2,13.9-20.3,25.7-20.3c4,0,3.1,2.8,3.1,5C866.3,622.9,866.3,636.6,866.3,650.5z"/>
	<path class="st0" d="M474,775.6c-7.6,5-14.9,6.6-23.1,6.6c-120.1-0.2-240.1-0.2-360,0c-5.7,0-9.9-1.2-13.5-6.6
		C209.6,775.6,341.3,775.6,474,775.6z"/>
	<path class="st1" d="M448.2,990.9c12.5,10.1,5.7,35.9-8.5,38.5c-10.4,1.9-20.1-1.4-30-2.6c-2.4-0.2-1.4-2.1-1.2-3.5
		c4.2-25,8.5-50,12.7-75.1c0.5-3.1,1.4-4.5,5-3.3c4.5,1.2,9.4,1.7,13.9,2.4c9.7,1.9,17.9,5.7,20.5,16.1
		C463.6,973.7,458.1,984.5,448.2,990.9z"/>
	<path class="st1" d="M253,916.8c2.4,11.1-1.9,22-11.3,27.4c-8.7,5.2-17.2,2.4-24.8-2.8c-5.4-3.8-13.5-7.6-14.9-12.7
		c-1.2-4.7,6.6-10.1,10.6-15.3c12-15.3,24.3-30.7,36.4-46.3c2.4-3.1,4-4.2,7.3-1.2c3.3,3.1,7.1,5.7,10.6,8.5
		c7.3,6.4,13.2,13.5,10.1,24.1C274.5,909.2,264.8,916.1,253,916.8z"/>
	<path class="st1" d="M565.5,956.7c3.3,0,6.6-0.5,9.7,0c7.3,1.2,14.4,4.2,16.3,11.8c2.1,8.7,4.5,18.2-3.5,25.5
		c-3.3,3.1-1.9,4,0.7,5.7c4,2.6,6.4,6.6,6.6,11.3c0.5,7.6,0.9,15.1,1.7,22.7c0.2,2.8,0,4.7-3.8,4.7c-3.5,0-5-0.9-5.2-4.5
		c-0.2-6.4-1.4-13-1.2-19.4c0.5-8.5-5.7-13.2-14.6-13.5c-12-0.2-12-0.2-10.9,11.8c0.7,8,1.2,16.1,1.9,23.8c0.2,3.1-0.7,4.2-3.8,4.2
		c-2.6,0-5,0.5-5.2-3.5c-1.7-25-3.5-49.8-5.4-74.8c-0.2-3.5,0.5-5,4.2-5.2c4,0,8.3-0.5,12.3-0.9
		C565.5,956.7,565.5,956.7,565.5,956.7z"/>
	<path class="st1" d="M378.8,973c6.6,6.6,6.1,14.2,3.1,22.2c-1.9,5.2-3.5,10.6-5.2,16.1c-0.9,2.6-1.4,4.7-5.2,3.3
		c-3.1-1.2-4.7-2.1-3.3-5.9c2.4-6.4,4.2-12.7,6.1-19.1c2.6-8.3,0.2-13.7-7.6-17.2c-11.6-5.2-11.8-5.2-15.6,6.6
		c-2.4,7.3-4.7,14.9-6.8,22.2c-0.9,3.1-2.1,4.2-5.4,3.1c-2.8-0.9-4.2-1.9-3.1-5.4c7.8-24.1,15.3-48.4,22.9-72.5
		c0.9-2.8,1.9-3.3,4.5-2.4c5,1.9,9.9,2.8,14.6,4.7c9.2,3.3,16.8,8.5,17.7,19.1C396.8,958.3,389.7,968.5,378.8,973z"/>
	<path class="st1" d="M785.8,981.7c-6.1,0.2-10.9-2.6-14.2-8.5c-8.3-14.2-16.5-28.3-25-42.3c-4.5-7.1-3.5-13.5,1.2-19.8
		c5-6.8,11.8-10.6,20.3-11.3c6.6-0.5,12,1.9,15.6,8c8,13.9,16.5,27.9,24.5,41.8c5.7,9.4,4.7,16.5-3.3,24.3
		C799.9,978.9,793.1,981.7,785.8,981.7z"/>
	<path class="st1" d="M716.6,922.9c2.4-0.7,2.6,1.2,2.8,2.6c8.5,24.1,17,48.4,25.7,72.2c1.2,3.5-0.7,3.8-3.1,4.7
		c-2.6,0.9-4.2,1.4-5.4-1.9c-3.1-9.4-6.8-18.6-9.7-28.1c-1.4-4.5-3.3-5.2-7.3-3.3c-4.2,1.9-8.7,3.5-13.5,4.7c-4.7,1.2-5.9,3.1-4,7.8
		c3.5,8.7,6.4,17.7,9.7,26.7c1.2,3.1,1.2,4.2-2.4,5.4s-4.7,0.9-5.9-2.8c-8.3-23.6-16.5-47-25-70.6c-0.9-2.8-1.2-4.5,2.4-5.7
		c3.5-1.2,5-0.7,6.1,2.8c3.1,9.4,6.6,18.6,9.7,28.1c0.9,2.8,2.1,4.2,5.4,2.6c6.6-2.8,16.3-3.3,19.1-8c3.1-5-3.5-12.7-5.4-19.6
		c-1.2-4-2.4-7.8-4.2-11.6C709.1,924.1,713.3,923.9,716.6,922.9z"/>
	<path class="st2" d="M573.1,798.5c4-2.6,8.5-3.8,13.2-3.8c133.8,0,267.7,0,401.5,0c0.9,0,1.7,0,2.8,0.2c-0.9,4.7-4.7,3.5-7.6,3.5
		c-49.6,0-99.4,0-148.9,0C747.1,798.5,660.2,798.5,573.1,798.5z"/>
	<path class="st1" d="M303.8,990c-6.4-1.2-8.3-3.5-6.4-10.1c4.2-14.2,3.5-13.7-9.7-21c-5.7-3.1-9-2.8-12,2.8
		c-1.7,3.1-4.2,5.4-6.1,8.3c-1.7,2.6-3.3,2.4-5.9,1.2c-3.3-1.4-4-2.6-1.4-5.9c15.6-20.1,31.2-40.1,46.5-60.4
		c2.1-2.6,3.5-3.3,6.8-1.7c9.2,4.5,9.4,4.5,6.8,14.4C316,941.6,309.9,965.9,303.8,990z"/>
	<path class="st1" d="M645.3,1032.2c-13.2,0-21.5-8.7-20.8-22c0.2-4,3.8-2.6,5.9-3.8c2.6-1.2,2.6,0.9,3.1,2.8
		c0.2,1.9,1.2,3.8,1.2,5.7c0.5,8.5,7.1,12,15.8,10.4c8.3-1.7,11.3-7.3,9.7-15.8c-0.9-5.7-3.8-9.2-8.7-11.8c-8.7-4.7-17-9.9-26-14.6
		c-7.6-4-9.9-10.9-9.9-18.4c0-7.1,4.7-11.8,10.9-14.9c6.6-3.3,13.5-4.2,20.8-2.1c8,2.4,13.9,11.3,13,19.6c-0.5,3.5-3.8,2.4-5.7,3.3
		c-2.1,1.2-3.1-0.2-3.3-2.4c-0.2-1.7-0.7-3.3-1.2-5c-1.7-7.6-6.6-11.1-13.9-9.7c-5.7,0.9-10.4,3.3-12,9.4c-1.4,5.2,2.1,12,7.3,15.1
		c8.3,4.7,16.3,9.9,24.8,13.9c12,5.7,13.9,17.2,12.5,25.3C667.5,1025.8,656.7,1032.2,645.3,1032.2z"/>
	<path class="st1" d="M830.4,865.6c15.6,0,27.9,20.5,20.3,34.5c-2.8,5-7.1,8.7-11.3,12.3c-2.6,2.1-2.8,3.5-0.5,6.1
		c6.4,6.8,12,13.9,18.4,20.8c2.6,2.8,2.1,4.2-0.5,6.6c-2.8,2.4-4,1.7-6.1-0.7c-16.3-18.9-32.8-37.8-49.3-56.4
		c-2.1-2.4-2.6-4,0.2-6.1c4.2-3.3,8-7.1,12.3-10.6C818.6,868.2,824,865.6,830.4,865.6z"/>
	<path class="st3" d="M446.6,793.6c-3.3,3.1-6.6,3.1-9.7,3.1c-112.8,0-225.7,0.2-338.7,0.2c-2.8,0-6.1,0.9-7.6-3.5
		C209.4,793.6,327.6,793.6,446.6,793.6z"/>
	<path class="st1" d="M488.6,997.3c0-11.8,0.2-23.6,0-35.6c-0.2-5.7,1.9-6.8,7.1-6.4c8.3,0.7,16.8,0.9,25.3,1.2
		c2.1,0,4.2-0.2,4.2,3.1c0,3.8-2.1,3.3-4.7,3.3c-6.1-0.2-12-0.5-18.2-0.9c-3.3-0.2-5,0-5,4.2c0,8-0.5,16.1-1.2,23.8
		c-0.2,3.1,0.7,4.2,3.8,4c3.8,0,7.8,0.2,11.6,0.5c2.1,0.2,5-0.7,4.7,3.3c-0.2,3.5-2.4,3.3-4.7,3.3c-5.2,0-11.8-3.1-14.9,0.5
		c-2.6,3.1-1.4,9.9-1.7,15.1s-1.9,11.6,0.5,15.1c2.4,3.3,9.2,0.9,14.2,1.4c3.5,0.2,6.8,0.7,10.4,0.7c2.6,0,3.3,0.9,3.3,3.5
		c0,2.6-1.2,3.3-3.5,3.1c-10.1-0.5-20.3-0.9-30.4-1.2c-4.2,0-3.5-2.6-3.5-5.2c0-12.3,0-24.5,0-36.8
		C486.7,997.3,487.7,997.3,488.6,997.3z"/>
	<path class="st1" d="M391.3,337.1c-11.8-20.1-20.3-41.3-18.4-65.1c0.7-8.3,4-11.6,9-10.6c7.1,1.2,14.4,10.1,13.5,15.8
		c-0.5,2.8-1.9,2.1-3.8,1.7c-7.8-1.4-9.9,0.2-10.4,8.3c-0.7,13.2,3.1,25.5,9.4,37.1C392.8,328.3,393,332.3,391.3,337.1z"/>
	<path class="st1" d="M680.3,602.6c11.1-7.3,16.8-17.5,22.4-27.9c2.4-4.5,6.1-7.1,11.3-7.6c5.7-0.5,10.4,1.4,12.5,7.1
		c1.9,5.4-0.2,10.1-5.4,13c-3.3,1.7-6.6,2.8-10.1,4.2c-5.9,2.4-11.8,4.2-16.5,8.3C690.4,602.8,686.4,603.8,680.3,602.6z"/>
	<path class="st1" d="M668.5,336.8c-1.2-5.2,0-9.4,2.4-13.7c6.1-11.3,9.7-23.6,8.5-36.6c-0.7-7.8-2.8-9.2-10.4-7.8
		c-2.6,0.5-3.3,0.2-3.5-2.6c-0.2-6.6,9.2-15.8,15.6-15.1c5,0.5,5.9,4.7,6.6,8.5c1.2,8,0.5,15.8-1.2,23.8
		c-2.6,14.2-7.8,27.6-14.9,40.4C671.1,334.9,670.8,336.8,668.5,336.8z"/>
	<path class="st1" d="M851.6,599.1c-8.3,0-15.8-6.8-16.1-13.9c0-7.6,7.8-14.2,16.5-13.9c8.7,0.2,15.8,6.8,15.6,14.2
		C867.5,592.9,859.9,599.3,851.6,599.1z"/>
	<path class="st4" d="M388.3,301.4c1.4,3.8,2.6,7.6,4.2,11.1c1.4,3.1,1.7,5.9-0.5,10.4c-3.1-8-6.1-14.2-6.1-21.7
		C386.9,300.5,387.6,300.5,388.3,301.4z"/>
	<path class="st5" d="M674.6,300c-1.2,7.3-2.1,14.9-6.8,21c-1.9-8,3.3-14.2,5.7-21C673.9,299.5,674.4,299.5,674.6,300z"/>
	<path class="st6" d="M480.3,113.5c-6.8,0-13.9-0.2-20.8-0.2c3.1-2.6,7.3,0.5,10.4-2.1c3.5-0.5,6.8,1.2,10.4,1.4
		c0.2,0.2,0.5,0.5,0.2,0.7C480.6,113.3,480.6,113.5,480.3,113.5z"/>
	<path class="st7" d="M623.1,101.5c1.7,2.4,1.2,5.2,1.4,7.8c0.5,1.4,0,1.7-1.2,1.4c-0.5-2.1-0.9-4.2-1.2-6.4
		C622.2,103.4,622.7,102.4,623.1,101.5z"/>
	<path class="st8" d="M529.7,92.5c2.4,1.4,4.5,3.1,4.2,6.6c-1.4-1.7-2.8-3.3-4.2-5C529.7,93.7,529.7,93.2,529.7,92.5z"/>
	<path class="st9" d="M674.6,300h-0.5h-0.5c-1.7-2.1,0.7-3.1,0.7-6.1C676.3,296.9,675.3,298.3,674.6,300z"/>
	<path class="st10" d="M468.8,526.8c-0.9-2.4-1.9-4.5-3.1-7.8c2.6,1.9,4,3.1,4.5,5C469.5,524.9,469.2,525.9,468.8,526.8z"/>
	<path class="st11" d="M388.3,301.4c-0.7,0-1.4,0-2.1,0c-0.5-1.7-1.7-3.1-0.2-5.4C387.1,297.6,388.3,299,388.3,301.4z"/>
	<path class="st12" d="M656.9,395.8c-1.2,1.7-2.1,3.5-5.4,3.8c1.4-2.4,2.6-4,3.8-5.7C655.7,394.6,656.2,395.4,656.9,395.8z"/>
	<path class="st13" d="M580.4,88.7c1.4,1.4,1.9,3.3,2.4,5.2c-0.2,0.7-0.7,0.7-1.2,0.2c-1.2-1.4-2.1-3.3-2.4-5.2
		C579.2,88.7,579.9,88.7,580.4,88.7z"/>
	<path d="M422,258.2c-15.8,2.1-17,1.9-12.7-13.7c4.5-16.5,4.2-33,6.1-49.8c1.2-9.2,4.2-17.5,9.4-25c5.7-8.3,11.6-10.4,21.2-7.3
		c26.2,8,52.9,13.9,80.3,14.4c29.3,0.5,57.6-5.2,85.4-13.5c14.9-4.2,21.2-1.4,27.9,12.5c3.5,7.8,6.1,16.1,5.9,24.3
		c-0.7,20.1,3.8,39.4,6.8,59c-4.5,0.9-8.7-0.5-13-0.9c-1.7-1.4-3.8-2.1-5.9-2.6c-17.7-8.3-35.9-8.5-54.8-3.8
		c-8.5,2.1-17.2,3.5-26,5.2c-1.9,0.5-3.8,0.2-5.9,0.7c-0.5,0.2-0.7,0.5-0.9,0.9c0.2,1.2,1.4,1.4,2.1,2.1c1.4,1.2,3.1,2.1,1.7,4.2
		c-13.2,7.1-26.7,6.8-39.9,0c-2.6-3.3,2.4-3.8,2.4-6.8c-13-3.5-26.2-5.7-39.4-8c-9.9-1.9-19.6-2.1-29.5,0
		c-5.2,1.2-10.1,3.3-15.1,5.4C426.8,256.3,424.4,257,422,258.2z"/>
	<path d="M608.5,406.5c-9-6.8-17.9-13.5-26.7-20.3c-9-7.1-19.1-10.6-30.2-12c-3.8-0.5-7.1-0.2-10.4,2.1c-5.4,3.5-12,5-17.7,1.7
		c-13-7.3-24.8-2.6-35.9,3.3c-9.9,5-18.4,12.7-26.9,19.8c-5.4,4.5-10.9,8.7-18.4,10.9c0.2-0.9,0.2-1.2,0.5-1.4
		c13.5-10.4,12.7-10.4,8.3-26.7c-4.2-14.9-12.3-26.2-22.7-37.5c-17.2-18.6-26.2-41.1-23.4-68.2c5.4,5,7.1,10.6,9.2,16.3
		c2.8,7.3,5.2,14.6,8.3,21.7c2.6,6.1,6.8,9.9,13.9,10.9c17.2,2.4,34.5,2.6,51.7,1.7c6.4-0.5,11.6-4.5,15.8-9.2
		c7.3-7.6,11.8-17,16.8-26c2.1-4,4.2-8.3,9.9-8c5.2,0.2,7.3,4.2,9.4,8c4.7,8.5,9,17.2,15.3,24.5c6.1,7.3,13.7,11.3,23.6,11.3
		c13.9-0.2,28.1-0.2,42-1.7c8.7-0.9,15.1-4.7,18.2-13c2.8-7.6,5.7-15.3,8.5-22.9c1.7-4.2,3.3-8.3,7.6-13.5c0,8.5,2.1,15.3,0.5,22
		c-4.7,18.6-11.3,36.4-26,49.6c-9.4,8.5-15.8,18.6-18.6,30.9c-0.9,3.8-1.9,7.6-3.8,10.9c-3.3,5.9-1.9,9.9,3.1,13.7
		C610.4,406.2,609.9,406.7,608.5,406.5z"/>
	<path class="st14" d="M572.4,415.2c3.5,1.9,7.3,3.8,10.4,7.1c-8.7,6.4-17.9,9.7-28.3,6.1c-16.1-5.4-31.6-5.7-47.7-0.2
		c-10.9,3.5-19.1,1.2-29-6.4c2.4-2.4,4.7-4.2,7.8-5c1.2,0,2.1,0,3.3,0.2c4.7,2.1,9.4,2.6,14.4,1.9c6.4-0.9,13-0.7,19.4,0.2
		c4.2,0.7,8.5,0.5,13,0c6.4-0.9,12.7-2.1,19.4-0.7C561.3,419.7,566.5,416.4,572.4,415.2z"/>
	<path class="st15" d="M551.6,255.9c14.6-3.1,29.5-6.4,44.4-9c14.2-2.4,27.4,1.7,39.9,7.8c1.9,1.4,2.4,3.3-0.5,3.1
		c-5.2-0.2-10.6,0.5-15.6-1.9c-0.7,0-1.2,0-1.9,0c-7.6,1.2-14.9,1.2-22.4,0c-0.9,0.5-2.1,0.9-3.1,1.4c-4.2,1.2-8.5-0.9-12.5,0.5
		c-1.2,0.2-2.6,0-3.8,0c-2.1-0.5-4.2,1.7-6.6,0.7c-0.5,0-0.9,0-1.2,0c-2.4,1.9-5.2,1.4-7.8,2.6c-3.5,1.2-6.8,2.6-10.4,3.8
		c0.7-2.4-1.9-2.4-2.6-3.8c-0.9-1.2-3.3-1.4-2.4-3.8l0,0C547.1,255.4,550,257.7,551.6,255.9z"/>
	<path class="st2" d="M427.2,254.4c14.6-7.3,29.5-9.7,45.8-6.6c14.9,2.8,29.7,5.4,44.6,9.4c-0.9,4.2-6.6,3.3-6.8,7.6
		c-2.1,0-3.8-0.9-5.4-2.1c-1.2-1.9-3.8-1.2-5-2.8c-0.5,0-0.9,0-1.4,0c-4.5,0.7-8.5-1.7-12.7-1.9c-0.9,0-2.1,0-3.1-0.2
		c-3.1-0.7-6.1-0.2-9.4-0.5c-2.1,0-4.2-0.9-6.6-0.7c-6.6,0-13,0-19.6,0c-2.1,0-4.5-0.2-6.6,0.2c-3.1,0.7-6.4-0.2-9.4,0.7
		C429.8,256.6,424.6,260.8,427.2,254.4z"/>
	<path class="st16" d="M572.4,415.2c-5.4,5-11.8,6.6-19.1,5c-0.9-0.2-2.1-0.5-3.1-0.2c-16.5,3.3-33.3-0.9-49.8,1.2
		c-5,0.7-9.4-0.5-13.5-3.3c0.9-4,5-1.7,7.1-3.8c16.1-4,32.6-4.7,49.1-4.7c6.6,0,12.7,1.7,18.9,3.5c2.8,0.7,5.7,1.9,8.7,1.2
		C571.5,414.5,571.9,414.7,572.4,415.2z"/>
	<path class="st17" d="M571,414c-4.2,2.8-8.3,0.5-12.3-0.2c-8.5-1.7-17-1.2-25.5-2.1c-13.9-1.4-26.2,3.5-39.7,3.8
		c-1.4,0-3.5,1.7-4-1.2c9.2-4.2,19.4-5.7,28.3-9.4c8.3-3.5,15.1-4.2,23.6,0C550.9,409,561.1,410.9,571,414z"/>
	<path class="st18" d="M575,266c-9.2,1.2-17.9,3.3-26.2,7.6c-10.1,5-21,5-31.9,1.7c-0.2-1.2,0-1.9,1.7-1.4c12.3,2.6,23.6,0.9,34.7-5
		c5.7-2.8,12-4.5,18.6-4C573.1,264.8,574.8,263.4,575,266z"/>
	<path class="st19" d="M466.2,264.8c-13,0-26,0-39.2,0c0-0.2,0-0.5,0-0.7c8-0.5,15.8-0.9,23.6-1.2c4,0.7,8,0,12,0.5
		C464.3,263.2,466.2,262.5,466.2,264.8z"/>
	<path class="st20" d="M609.9,262.5c3.8,0,7.3-0.7,10.9,0.5c0,0.7,0,1.2,0,1.9c-8,0-15.8,0-23.8,0c0.5-3.3,2.8-1.7,4.5-1.9
		C604.3,262.7,607.1,263.6,609.9,262.5z"/>
	<path class="st21" d="M619.8,255.9c4.5,0.2,8.7,0.7,13.2,0.9c1.4,0,3.8,1.2,2.8-2.1c2.6,0,3.8,1.2,4,3.5c-5.2,0-10.4,0-15.6,0
		C622.7,258.2,620.3,258.7,619.8,255.9z"/>
	<path class="st21" d="M466.2,264.8c-5-2.6-10.4,0.2-15.3-2.1c8.3-0.5,16.5-0.9,24.8,0.7c-0.9,1.7-3.1,0.2-4.2,1.4
		C469.7,264.8,468.1,264.8,466.2,264.8z"/>
	<path class="st22" d="M485.5,257.3c4.5-0.2,9,0.7,13,2.6c-4.7,3.3-8.7-0.5-13-1.4c-0.5-0.2-0.5-0.5-0.5-0.7
		C485.3,257.3,485.5,257.3,485.5,257.3z"/>
	<path class="st23" d="M609.9,262.5c-3.8,2.8-9-0.2-12.7,2.4c-1.7,0-3.5,0-5.2-0.2c-0.7-0.7-0.7-1.4,0-2.1
		C597.9,262.5,603.8,262.5,609.9,262.5z"/>
	<path class="st24" d="M575,266c-0.9-1.2-2.1-1.2-3.3-1.2c3.8-2.1,8-0.9,12-1.4c2.4,0,5-2.1,6.6,1.2
		C585.4,265.1,580.2,265.5,575,266z"/>
	<path class="st25" d="M595.5,255.9c7.6,0,14.9,0,22.4,0C610.6,258.4,603.1,258.2,595.5,255.9z"/>
	<path class="st26" d="M471.6,264.8c0.9-1.4,2.8-0.7,4.2-1.4c4.2,0.5,8.7-0.5,13,1.4c-0.2,0.9-0.9,0.9-1.7,1.2
		C481.8,265.5,476.6,265.3,471.6,264.8z"/>
	<path class="st27" d="M446.8,256.1c6.8,0,13.7,0,20.8,0c0.5,0.2,0.5,0.5,0.5,0.7c-0.2,0.2-0.2,0.5-0.5,0.5c-6.8,0-13.9,0-20.8,0
		c-0.5-0.2-0.5-0.5-0.5-0.7C446.6,256.1,446.6,256.1,446.8,256.1z"/>
	<path class="st28" d="M431,257c3.1-1.4,6.1-1.2,9.4-0.9c0.5,0.5,1.4,0.5,1.4,1.4c-2.6,1.2-5.4,0.9-8,0.9
		C432.9,257.5,431.5,258.2,431,257z"/>
	<path class="st29" d="M431,257c0.9,0.5,1.9,0.9,2.8,1.4c-3.8,0-7.8,0-11.6,0c1.2-1.9,2.4-3.8,5.2-3.8
		C425.8,259.2,429.8,256.1,431,257z"/>
	<path class="st30" d="M579.9,257c4.2-2.4,8.5,0.2,12.7,0.2c-2.6,1.4-5.7,1.2-8.5,1.2C582.8,257.3,580.9,258.4,579.9,257z"/>
	<path class="st22" d="M474,256.1c3.3-0.2,6.4-0.2,9.4,0.9c-1.4,1.9-3.8,0.2-5.4,1.2c-2.8,0.2-5.7,0.2-8.3-0.9
		C470.9,255.9,472.8,257.3,474,256.1z"/>
	<path class="st31" d="M623.1,110.7c0.5-0.5,0.9-0.9,1.2-1.4c1.7,3.5,1.2,7.3,0.2,11.1C624.1,117.3,623.6,114,623.1,110.7z"/>
	<path class="st32" d="M608.5,406.5c0.5-0.5,1.2-1.2,1.7-1.7c1.9,0.9,3.8,2.1,5.2,5C612.1,409.3,609.9,408.3,608.5,406.5z"/>
	<path class="st33" d="M499.9,266.5c2.4,0.2,4.7,0.7,6.6,2.4c-0.2,0.5-0.7,0.9-1.4,1.2c-2.4-0.5-4.7-0.7-6.8-2.1
		C498.5,266.9,499.2,266.9,499.9,266.5z"/>
	<path class="st34" d="M518.3,273.8c-0.5,0.5-0.9,0.9-1.7,1.4c-2.1-0.5-4.5-0.7-5.4-3.5C514.1,271.2,516.2,272.6,518.3,273.8z"/>
	<path class="st35" d="M489.8,414.2c1.4,0.5,2.6,0.9,4,1.2c-1.9,1.9-5.2-0.2-6.8,2.4c-0.7,0-1.2-0.2-1.2-1.2
		C486.5,414.9,488.4,414.9,489.8,414.2z"/>
	<path class="st36" d="M632.4,264.4c-2.8,0.9-5.7,0.9-9,0C626.4,263.2,629.3,263.6,632.4,264.4z"/>
	<path class="st9" d="M560.8,261.3c2.1-2.1,5-2.4,7.8-2.6C566.7,262,563.7,260.8,560.8,261.3z"/>
	<path class="st37" d="M499.9,266.5c-0.5,0.5-0.9,0.9-1.7,1.4c-2.1-0.5-4.5,0-6.4-1.4c0.2-0.7,0.9-0.9,1.7-1.2
		C495.4,265.8,497.8,266,499.9,266.5z"/>
	<path class="st22" d="M569.8,258.4c2.1-0.9,4.2-1.7,6.6-1.2c0.5,0.2,0.5,0.5,0.5,0.7s-0.2,0.2-0.5,0.2
		C574.3,258.7,571.9,261.3,569.8,258.4z"/>
	<path class="st38" d="M590.6,264.8c-1.9-1.9-4.5-0.2-6.6-1.2c2.6-1.2,5.2-1.2,8-0.9c0,0.7,0,1.4,0,2.1
		C591.5,264.8,591,264.8,590.6,264.8z"/>
	<path class="st39" d="M480.3,113.5c-0.2-0.2-0.2-0.7,0-1.2c2.1,0.5,4,0.9,7.6,1.7C484.3,114.9,482.2,115.4,480.3,113.5z"/>
	<path class="st21" d="M581.4,94.2c0.5,0,0.9,0,1.2-0.2c1.2,1.7,1.9,3.3,1.7,5.2c-0.5,0.5-0.9,0.5-1.4,0
		C582.5,97.5,580.9,96,581.4,94.2z"/>
	<path class="st40" d="M478,258.2c1.4-1.4,3.5-0.5,5.4-1.2c0.7,0,1.4,0.2,2.4,0.2c0,0.5,0,0.7,0,1.2
		C483.2,258.2,480.6,258.2,478,258.2z"/>
	<path class="st41" d="M500.2,259.9c1.9,0.7,4.7-0.2,5,2.8C503.2,262.2,500.9,262.5,500.2,259.9z"/>
	<path class="st40" d="M576.4,258.2c0-0.2,0-0.7,0-0.9c1.2,0,2.4-0.2,3.5-0.5c1.4,0.5,2.6,0.9,4,1.4
		C581.6,258.2,579,258.2,576.4,258.2z"/>
	<path d="M505.1,270c0.5-0.5,0.9-0.7,1.4-1.2c1.7,0,2.8,0.9,4,2.1C508.2,272.1,506.8,270.5,505.1,270z"/>
	<path class="st42" d="M582.8,99.1c0.5,0,0.9,0,1.4,0c1.4,1.7,1.4,3.3,0.9,5.2h-0.7C584,102.4,583.5,100.8,582.8,99.1z"/>
	<path class="st43" d="M474,256.1c-1.4,0.5-2.6,0.9-4,1.4c-0.7,0-1.4-0.2-2.4-0.2c0-0.5,0-0.7,0-1.2
		C469.7,256.1,471.8,256.1,474,256.1z"/>
	<path class="st44" d="M493.3,265.3c-0.5,0.5-0.9,0.7-1.7,1.2c-1.7,0-3.3-0.2-5-0.5c0.5-0.5,1.2-0.9,1.7-1.2
		C490.3,264.8,491.9,265.1,493.3,265.3z"/>
	<path class="st45" d="M441.9,257.5c-0.5-0.5-0.9-0.9-1.4-1.4c2.1,0,4.2,0,6.4,0c0,0.5,0,0.7,0,1.2
		C445.2,257.3,443.5,257.3,441.9,257.5z"/>
	<path class="st11" d="M587.5,116.1c-1.2-1.4-0.9-2.8-0.5-4.2C588.7,113.3,588,114.7,587.5,116.1z"/>
	<path class="st46" d="M584.4,104.3h0.7c2.1,0.9,1.4,2.6,1.4,4.2C584.4,107.6,585.6,105.5,584.4,104.3z"/>
	<path d="M105.3,643.9c0-17.9,0.2-35.9,0-53.8c0-4.7,1.4-5.9,5.9-5.7c12.3,0.2,24.5,0,36.8,0.2c10.6,0.2,15.3,4.2,15.3,14.9
		c0.5,29.7,0.2,59.5,0,89.2c0,9.9-5.2,14.6-15.8,14.9c-13,0.5-26,0-38.7,0.2c-4.5,0-3.5-2.8-3.5-5.2
		C105.3,680.5,105.3,662.3,105.3,643.9z"/>
	<path d="M249.7,659c0-9.9-0.2-19.8,0-29.7c0.2-9.7,5-13.9,14.4-14.6c2.8-0.2,5.7-0.2,8.5,0c9,0.7,13.9,4.7,14.2,13.7
		c0.5,20.8,0.5,41.3,0,62.1c-0.2,8.3-4.5,11.8-12.5,13.2c-4.2,0.7-8.5,0.7-12.7-0.2c-7.8-1.7-11.3-5.4-11.6-13.2
		C249.5,679.8,249.7,669.4,249.7,659L249.7,659z"/>
	<path d="M706.5,639.7c-5,0-9.9-0.2-14.9,0c-3.5,0.2-4.2-1.2-4.2-4.5c-0.5-17.9,14.4-27.1,30.7-18.9c5.7,2.8,10.1,16.3,7.3,22
		c-0.9,1.9-2.6,1.2-4,1.2C716.4,639.7,711.4,639.7,706.5,639.7z"/>
	<path class="st14" d="M446.1,1004.6c-0.5,2.8-1.2,5.7-1.4,8.3c-0.7,6.8-5,9.4-11.1,10.6c-1.2,0.2-2.6,0.2-3.8,0
		c-12-1.2-12-1.2-10.1-13c0.9-5.4,2.1-11.1,2.6-16.5c0.5-3.5,1.9-4.2,5-3.5c4.5,0.9,9,1.2,13,3.5
		C444,996.6,446.3,999.9,446.1,1004.6z"/>
	<path class="st14" d="M437.4,985.2c-12.5-0.2-13.2-0.7-11.1-13.2c0.7-4.2,2.1-8.5,2.1-12.7c-0.2-7.8,3.8-7.8,9.7-6.6
		c18.2,3.5,16.3,13.5,11.8,26.9C448.2,983.8,443,985.5,437.4,985.2z"/>
	<path class="st14" d="M256.6,909c-10.1-0.5-14.6-5.7-19.8-9.7c-1.4-1.2,0-2.4,0.7-3.3c5.4-6.8,10.6-13.5,16.1-20.3
		c1.2-1.4,2.1-2.6,4-0.9c3.3,2.8,7.1,5,9.7,8.5c2.8,4,5,8.7,1.9,13C264.8,901.9,262.2,909.2,256.6,909z"/>
	<path class="st14" d="M246.2,923.6c-1.2,5.4-5.7,10.6-11.1,14.4c-4.7,3.3-9.9,0.9-14.4-1.9c-9.7-6.6-9.7-6.6-2.4-15.8
		c3.5-4.5,7.1-9.2,10.9-13.7c0.7-0.9,0.9-2.8,3.3-2.1C238.2,906.4,246.2,916.3,246.2,923.6z"/>
	<path d="M584.4,979.1c0.7,9.9-2.8,14.4-13.5,15.6c-13,1.4-10.4,2.4-11.3-9.2c-0.5-5.9-0.7-11.6-1.4-17.2c-0.5-4,0.9-5.4,5-5.2
		c0.9,0,2.1,0,3.3,0C579.9,962.3,583.5,965.4,584.4,979.1z"/>
	<path d="M372.2,966.4c-4.5,0-8.7-1.9-13-3.1c-2.6-0.7-2.1-2.4-1.7-4c2.6-8.3,5.2-16.3,7.8-24.5c0.7-1.9,1.4-3.1,3.5-2.1
		c4,1.7,8.3,2.1,12,4.5c5.9,3.8,7.3,8.3,5.4,14.9C382.8,963.8,380,966.4,372.2,966.4z"/>
	<path d="M766.4,907.1c4.7,0,7.6,1.4,9.4,4.7c8.7,14.9,17.5,29.5,26.2,44.4c3.5,5.9,1.2,12.3-5.7,16.1c-7.1,4-13,3.1-16.8-3.1
		c-8.3-13.7-16.3-27.9-24.8-41.5c-2.4-4.2-4.2-8-1.4-12.5C756.5,909.9,761.2,907.3,766.4,907.1z"/>
	<path class="st14" d="M315.1,911.1c-0.9,4.2-1.7,6.6-2.4,9.2c-3.3,12.7-6.6,25.5-10.1,38.7c-6.1-3.1-12-5.9-18.2-9
		c9.2-11.8,17.9-23.4,26.9-34.7C312.3,914.4,313,913.5,315.1,911.1z"/>
	<path class="st14" d="M828.3,872.9c2.4,0.2,5.2,0.9,7.1,3.1c0.9,0.9,1.7,1.9,2.6,2.8c10.6,12.3,9.4,20.5-4.2,29.7
		c-2.4,1.7-2.8,0.2-4-0.9c-6.1-7.1-12.3-13.9-18.2-21c-0.7-0.7-2.6-1.9-1.2-3.1C815.3,879,820,873.3,828.3,872.9z"/>
	<path class="st47" d="M545.2,257.3c0.9,1.2,1.7,2.6,2.4,3.8C544.1,259.9,543.6,259.2,545.2,257.3z"/>
	<path class="st47" d="M551.6,255.9c-1.7,1.9-4,1.4-6.4,1.4C547.1,255.1,549.5,255.9,551.6,255.9z"/>
</g>
</svg>
