<?xml version="1.0" encoding="utf-8"?>
<!-- Generator: Adobe Illustrator 27.4.0, SVG Export Plug-In . SVG Version: 6.00 Build 0)  -->
<svg version="1.1" id="Camada_1" xmlns="http://www.w3.org/2000/svg" xmlns:xlink="http://www.w3.org/1999/xlink" x="0px" y="0px"
	 viewBox="0 0 595.3 841.9" style="enable-background:new 0 0 595.3 841.9;" xml:space="preserve">
<style type="text/css">
	.st0{fill:#FEFEFE;}
	.st1{fill:#FDFDFD;}
	.st2{fill:#FBFBFB;}
	.st3{fill:#F7F7F7;}
	.st4{fill:#EBEBEB;}
	.st5{fill:#ECECEC;}
	.st6{fill:#060606;}
	.st7{fill:#080808;}
	.st8{fill:#333333;}
	.st9{fill:#919191;}
	.st10{fill:#373737;}
	.st11{fill:#B4B4B4;}
	.st12{fill:#242424;}
	.st13{fill:#050505;}
	.st14{fill:#010101;}
	.st15{fill:#FAFAFA;}
	.st16{fill:#FCFCFC;}
	.st17{fill:#030303;}
	.st18{fill:#111111;}
	.st19{fill:#7C7C7C;}
	.st20{fill:#AEAEAE;}
	.st21{fill:#515151;}
	.st22{fill:#727272;}
	.st23{fill:#565656;}
	.st24{fill:#141414;}
	.st25{fill:#161616;}
	.st26{fill:#181818;}
	.st27{fill:#202020;}
	.st28{fill:#6A6A6A;}
	.st29{fill:#454545;}
	.st30{fill:#6B6B6B;}
	.st31{fill:#545454;}
	.st32{fill:#2F2F2F;}
	.st33{fill:#313131;}
	.st34{fill:#414141;}
	.st35{fill:#555555;}
	.st36{fill:#828282;}
	.st37{fill:#040404;}
	.st38{fill:#5C5C5C;}
	.st39{fill:#2D2D2D;}
	.st40{fill:#3C3C3C;}
	.st41{fill:#9A9A9A;}
	.st42{fill:#5D5D5D;}
	.st43{fill:#424242;}
	.st44{fill:#020202;}
	.st45{fill:#444444;}
	.st46{fill:#767676;}
	.st47{fill:#AFAFAF;}
</style>
<g>
	<path class="st0" d="M349.9,387.5c0.7-0.2,0.9-1.2,1.9-1.1c0.5,1.1,0.1,2.3-0.4,3.3c-3.8,8.3-4.8,17.2-5.3,26.1
		c-0.7,10.9-6.2,18.6-14.9,24.5c-2.8,1.9-5.7,3.7-9.1,4.9c-0.2-1.8,1-3.1,0.6-4.7c-1.4,1-2.2,2.4-2.7,3.8c-0.9,2.2-2.5,3.2-4.6,3.8
		c-5.6,1.8-11.4,3.5-17.2,3.8c-8.2,0.5-16.1-1.8-23.6-4.8c-2.2-0.9-2.2-3.9-3.9-5.4c-0.2-0.1-0.5-0.3-0.6-0.5
		c-0.2,0.6-0.2,1.1,0.1,1.7c-0.1,0.7,0.6,1.5,0,2c-0.6,0.6-1.4-0.1-2-0.4c-4.6-2.2-8.8-5.1-12.6-8.6c-6.7-6.1-9-13.9-9.5-22.6
		c-0.4-7.8-1.5-15.4-4.8-22.6c-0.7-1.5-0.7-2.3-0.6-4.2c1.1-0.5,1.3,1.2,2.4,0.9c0.6-0.9-0.1-1.6-0.6-2.1c-2.8-2.8-2.8-6.4-2.9-9.9
		c-0.4-11,0.1-21.9,0.5-32.9c0.4-11.7-0.7-23.3-4.3-34.4c-6.1-18.4,5-32.9,19.9-38.1c3.4-1.2,7-2,10.6-2.3c2.6-0.2,5.3-0.5,7.9-0.2
		c0.9,0,1.7,0.4,2.6,0.6c-0.3-0.1-0.7-0.1-1-0.3c-0.3-0.1-0.7-0.3-1-0.3c-1.4,0-2.8,0-4.1-0.7c-16.5-1.3-33.4,6-40,25.1
		c-0.2,0.5-0.5,1-0.7,1.4c-0.8-0.1-0.7-0.6-0.8-1c-1.9-19.3,7.8-39.6,30.4-45.1c5.3-1.3,10.5,0.3,15.6,1.6c7.7,2.1,14.4,6,20.6,10.9
		c0.3,0,0.5,0.2,0.8,0.2c-0.4-0.2-0.5-0.6-0.8-0.9c-10.1-9.9-22.5-14.7-37-16.1c5.9-2.4,11.4-3.6,17-4.8
		c18.4-3.8,31.3,4.2,40.9,19.2c0.7,0.6,0.8,1.5,1.3,2.2c0.2,0.7,0.5,1.4,0.7,2.1c0.5,0.6,0.6,1.3,0.5,2.1c0.1,0.4,0.4,0.7,0.5,1.1
		c0-0.4-0.3-0.7-0.4-1c-0.1-0.7,0-1.5-0.5-2.1c-0.2-0.7-0.5-1.4-0.7-2.1c-0.4-0.8-0.9-1.5-0.8-2.4c-3.4-8.9-9.9-15-18.1-20
		c12.5-0.4,22.3,4.2,29.6,13.9c2.9,3.8,4.8,8.1,6.2,12.7c0.7,0.8,0.6,1.8,0.9,2.7c0,1.2,0.5,2.3,0.3,3.4c0,0.4,0.3,0.1,0.3,0.1
		c-0.5-1.3-0.4-2.8-0.8-4.1c-0.4-1.1,0.1-2.2-0.3-3.2c-1.1-7.4-4.8-13.4-9.6-19.1c2.5,0,8.8,3.2,12,5.9c7.2,6.1,11.1,14.1,12.9,23.2
		c0.2,1.1-0.1,2-0.6,2.9c-0.9,1.7-1.7,3.3-2.4,5.1c3.4-2.7,5.5-6.5,8.1-10.4c2.6,4.5,3.5,8.9,3.7,13.5c0.5,8.1-1.6,15.9-3.4,23.8
		c-3.1,14.3-4.7,28.6-3.7,43.2c0.7,9.6,0.5,19.2,0,28.8c-0.1,1.1-0.3,2.1-1,3c-0.9,1.2-1.6,2.6-2.4,3.9
		C348.9,387.5,348.8,388.1,349.9,387.5z"/>
	<path class="st0" d="M241.9,579.5c-0.8-0.5-1.3-0.7-1.7-1.1c-2.4-2.8-1.6-5.5,1.9-6.3c1.4-0.3,2.9-0.6,4.3-0.4
		c2.2,0.4,3.5-0.4,4.9-2c4.6-5.6,10.3-10,16.6-13.7c11.4-6.7,24-10.4,36.2-15.2c11.5-4.5,23.2-8.8,34.7-13.3
		c1.9-0.7,3.2-0.5,4.7,0.8c2.8,2.5,4.5,5.4,5,9.1c0.2,1.4-0.2,2.2-1.6,2.7c-19.3,7.4-38.6,15-58.1,21.9c-2.7,1-4.7,0.4-6.2-1.8
		c-1.1-1.8-2.5-1.9-4.2-1.4c-6.7,2-16,8-20.9,13.5c8.4,0.6,16.6,1.2,24.9,1.6c19.3,1.1,38.6,0.7,57.8-0.3c4.6-0.3,9.3-0.9,14-0.2
		c4.4,0.7,7,2.7,7.2,5.6c0.2,3-1.8,5.1-6.2,6.6c-3.1,1-6.3,1.3-9.4,1.5c-21.8,1.9-43.6,2.4-65.4,0.6c-6.6-0.6-13.2-1.5-19.9-2.4
		c-4.6-0.7-9-1.9-13.4-3.2c-1.2-0.4-2.1-0.1-3,0.5c-4.2,2.5-8.8,4-13.7,4.3c-0.8,0.1-1.6,0-2.5,0c-1,0-1.7-0.6-1.8-1.7
		c-0.1-1.2,0.8-1.6,1.7-1.7c2.5-0.4,5.1-0.7,7.6-1.2C237.6,581.9,239.5,581,241.9,579.5z"/>
	<path class="st0" d="M103.9,493.7c0-8.4,0-16.8,0-25.2c0-3.7,0.8-4.7,4.4-4.7c11.3-0.1,22.7-0.1,34,0c6.6,0.1,10.9,4.6,10.9,11.2
		c0,11.9,0,23.8,0,35.6c0,5.9-3.6,10.2-9.5,10.7c-4.7,0.4-9.5,0.2-14.2,0.3c-7.7,0-15.4,0-23,0c-2,0-2.7-0.3-2.6-2.5
		C104,510.7,103.9,502.2,103.9,493.7C103.9,493.7,103.9,493.7,103.9,493.7z"/>
	<path class="st0" d="M165.3,499c0-3.7,0-7.3,0-11c0-7.1,3.5-11.2,10.6-11.6c6.3-0.3,12.6-0.3,18.9,0c5.5,0.3,11,3.5,10.6,11.7
		c-0.3,7.5-0.1,15-0.1,22.5c0,6-3.2,10-9.2,10.6c-7.3,0.8-14.6,0.8-21.9,0c-5.8-0.7-9-4.7-9-10.5C165.3,506.9,165.3,503,165.3,499z"
		/>
	<path class="st0" d="M217.5,498.9c0-6.9,0-13.7,0-20.6c0-1.5,0.3-2,1.9-2c9.1,0.1,18.1,0,27.1,0.1c6.9,0.1,11.2,4.5,11.2,11.4
		c0,8.1,0,16.3,0,24.4c-0.1,6.9-4.2,10.4-11,9.5c-1.8-0.2-1.1-1.4-1.1-2.2c-0.1-9.8,0-19.5,0-29.3c0-0.8,0-1.6,0-2.5
		c-0.1-5.3-2.2-7.5-7.5-7.6c-2.6-0.1-6.1-0.9-7.7,0.4c-1.7,1.4-0.5,5-0.5,7.6c-0.1,7.7,0,15.4,0,23c0,7.8-2.5,10.2-10.3,10.6
		c-1.6,0.1-2-0.4-2-1.9C217.5,512.8,217.5,505.9,217.5,498.9z"/>
	<path class="st0" d="M299.3,493.6c0-8.4,0-16.8,0-25.2c0-3.8,0.8-4.5,4.5-4.6c10.8-0.4,21.6,0,32.4,0c4,0,4.9,0.9,5,5.1
		c0.1,3.8-0.1,7.5,0.1,11.2c0.1,1.9-0.9,1.8-2.2,1.8c-1.2,0-2.4,0.2-2.3-1.7c0.1-2.2,0.1-4.4-0.1-6.6c-0.2-3.4-1.9-5.4-5.1-5.8
		c-6.3-0.8-12.6-0.2-18.9-0.4c-1.3,0-1.2,0.8-1.2,1.6c0,6.5,0,13,0,19.5c0,1.3,0.4,1.7,1.7,1.7c6.2,0.2,10.2-2.5,11.6-8.5
		c0.4-1.8,1.4-1.5,2.6-1.5c1.5-0.1,1.3,0.9,1.3,1.8c0,6.5,0,13,0,19.5c0,0.8,0.4,1.9-1.2,1.8c-1.1-0.1-2.2,0.2-2.7-1.5
		c-1.6-5.6-6-8.4-11.8-8c-1.6,0.1-1.4,1-1.4,2c0,5.3,0,10.6,0,15.9c0,7.2-3.8,10.5-10.9,10c-1.8-0.1-1.2-1.3-1.2-2.1
		C299.2,511,299.3,502.3,299.3,493.6C299.3,493.6,299.3,493.6,299.3,493.6z"/>
	<path class="st0" d="M350.8,499c0-3.7,0-7.5,0-11.2c0-6.5,4.2-11.1,10.8-11.3c6.3-0.2,12.6-0.2,18.9,0c6.3,0.2,10.5,4.6,10.5,10.9
		c0,2.3,0.8,5.3-0.4,6.6c-1.4,1.5-4.5,0.5-6.8,0.5c-6.3,0.1-12.6,0-18.9,0c-1.4,0-2.1,0.1-2.1,1.8c0.1,4.9,0,9.9,0.1,14.8
		c0.1,4.3,1.7,6.1,6,6.8c2.9,0.4,5.8,0.5,8.7-0.2c3.5-0.8,4.9-2.4,5.1-6c0.1-1.2,0.2-2.4,0-3.6c-0.4-2.3,0.7-2.7,2.7-2.6
		c1.3,0.1,1.8,0.4,1.7,1.7c-0.1,1.9,0,3.8-0.1,5.8c-0.2,4.7-3,7.9-7.8,8.5c-6.2,0.7-12.4,0.6-18.6,0.1c-6.1-0.5-9.9-5.1-9.9-11.3
		C350.8,506.5,350.8,502.7,350.8,499z"/>
	<path class="st0" d="M467.8,502.7c-4.5,5.6-8.9,10.9-13.2,16.3c-1.9,2.4-4.4,2.7-7.1,2.6c-0.6,0-1.4,0-1.5-0.8
		c-0.1-0.8,0.6-1.1,1.3-1.1c1.7,0,2.6-1.2,3.5-2.3c4.5-5.6,8.9-11.4,13.5-17c0.9-1.2,0.8-1.9,0-3c-4-5.6-7.8-11.2-11.7-16.9
		c-0.9-1.3-1.9-2.2-3.5-2.4c-0.5-0.1-0.9-0.2-0.8-0.9c0.1-0.5,0.4-0.7,0.9-0.9c6-2,14.5,0.8,18,6.1c1.6,2.3,3.3,4.6,4.7,7.1
		c1.2,2.2,1.9,1.6,3,0c2.5-3.7,5.1-7.3,8.1-10.7c2-2.3,4.5-2.5,7.2-2.4c0.7,0,1.2,0.3,1.2,1.1c0,0.8-0.7,0.7-1.2,0.8
		c-1.5,0.1-2.4,1-3.3,2.2c-3.3,4.5-6.6,9-10,13.4c-0.9,1.1-0.9,1.9-0.1,3.1c4.5,6.3,8.9,12.7,13.3,19.1c1.4,2.1,3,3.9,5.9,3.8
		c0.5,0,0.9,0.1,0.9,0.7c0,0.7-0.3,0.9-0.9,1.1c-6.5,2.2-16.1-1-20-6.8C473.3,510.8,470.6,506.8,467.8,502.7z"/>
	<path class="st0" d="M412.7,489.5c0,7.5,0,15,0,22.5c0,5.5,0.2,5.8,5.3,7.8c0.5,0.2,0.9,0.4,0.9,0.9c0,0.7-0.5,1-1.1,1
		c-4.3,0-8.6,0.5-12.8-1c-2.5-0.9-4.1-2.7-4.4-5.5c-0.1-1.1-0.3-2.2-0.3-3.3c0-12.9-0.1-25.8,0-38.6c0-7.2,2.5-9.7,9.5-10.4
		c2-0.2,2.9,0.1,2.8,2.5C412.6,473.5,412.7,481.5,412.7,489.5z"/>
	<path class="st0" d="M496.5,548.1c-1.4,3.2-3.3,4.1-6.4,4.1c-53.1-0.1-106.3-0.1-159.4-0.1c-1,0-2,0-2.9,0c4.2-2,8.1-4.1,13-4.1
		c50.9,0.1,101.7,0.1,152.6,0.1C494.3,548.1,495.3,548.1,496.5,548.1z"/>
	<path class="st0" d="M438.6,495.4c0,5.6,0.1,11.1,0,16.7c-0.2,8.1-4,9.4-10.9,9.7c-1.1,0-1.4-0.5-1.4-1.5c0-12-0.1-23.9,0.2-35.9
		c0.2-7.7,5.9-8.6,10.9-8.6c1.7,0,1.3,1.2,1.3,2.1C438.6,483.7,438.6,489.5,438.6,495.4z"/>
	<path class="st0" d="M272.4,548.4c-3.2,2.1-6.3,2.8-9.8,2.8c-50.9-0.1-101.7-0.1-152.5,0c-2.4,0-4.2-0.5-5.7-2.8
		C160.4,548.4,216.2,548.4,272.4,548.4z"/>
	<path class="st1" d="M261.5,639.6c5.3,4.3,2.4,15.2-3.6,16.3c-4.4,0.8-8.5-0.6-12.7-1.1c-1-0.1-0.6-0.9-0.5-1.5
		c1.8-10.6,3.6-21.2,5.4-31.8c0.2-1.3,0.6-1.9,2.1-1.4c1.9,0.5,4,0.7,5.9,1c4.1,0.8,7.6,2.4,8.7,6.8
		C268,632.3,265.7,636.9,261.5,639.6z"/>
	<path class="st1" d="M178.8,608.2c1,4.7-0.8,9.3-4.8,11.6c-3.7,2.2-7.3,1-10.5-1.2c-2.3-1.6-5.7-3.2-6.3-5.4
		c-0.5-2,2.8-4.3,4.5-6.5c5.1-6.5,10.3-13,15.4-19.6c1-1.3,1.7-1.8,3.1-0.5c1.4,1.3,3,2.4,4.5,3.6c3.1,2.7,5.6,5.7,4.3,10.2
		C187.9,605,183.8,607.9,178.8,608.2z"/>
	<path class="st1" d="M311.2,625.1c1.4,0,2.8-0.2,4.1,0c3.1,0.5,6.1,1.8,6.9,5c0.9,3.7,1.9,7.7-1.5,10.8c-1.4,1.3-0.8,1.7,0.3,2.4
		c1.7,1.1,2.7,2.8,2.8,4.8c0.2,3.2,0.4,6.4,0.7,9.6c0.1,1.2,0,2-1.6,2c-1.5,0-2.1-0.4-2.2-1.9c-0.1-2.7-0.6-5.5-0.5-8.2
		c0.2-3.6-2.4-5.6-6.2-5.7c-5.1-0.1-5.1-0.1-4.6,5c0.3,3.4,0.5,6.8,0.8,10.1c0.1,1.3-0.3,1.8-1.6,1.8c-1.1,0-2.1,0.2-2.2-1.5
		c-0.7-10.6-1.5-21.1-2.3-31.7c-0.1-1.5,0.2-2.1,1.8-2.2c1.7,0,3.5-0.2,5.2-0.4C311.2,625.1,311.2,625.1,311.2,625.1z"/>
	<path class="st1" d="M232.1,632c2.8,2.8,2.6,6,1.3,9.4c-0.8,2.2-1.5,4.5-2.2,6.8c-0.4,1.1-0.6,2-2.2,1.4c-1.3-0.5-2-0.9-1.4-2.5
		c1-2.7,1.8-5.4,2.6-8.1c1.1-3.5,0.1-5.8-3.2-7.3c-4.9-2.2-5-2.2-6.6,2.8c-1,3.1-2,6.3-2.9,9.4c-0.4,1.3-0.9,1.8-2.3,1.3
		c-1.2-0.4-1.8-0.8-1.3-2.3c3.3-10.2,6.5-20.5,9.7-30.7c0.4-1.2,0.8-1.4,1.9-1c2.1,0.8,4.2,1.2,6.2,2c3.9,1.4,7.1,3.6,7.5,8.1
		C239.7,625.8,236.7,630.1,232.1,632z"/>
	<path class="st1" d="M404.5,635.7c-2.6,0.1-4.6-1.1-6-3.6c-3.5-6-7-12-10.6-17.9c-1.9-3-1.5-5.7,0.5-8.4c2.1-2.9,5-4.5,8.6-4.8
		c2.8-0.2,5.1,0.8,6.6,3.4c3.4,5.9,7,11.8,10.4,17.7c2.4,4,2,7-1.4,10.3C410.5,634.5,407.6,635.7,404.5,635.7z"/>
	<path class="st1" d="M375.2,610.8c1-0.3,1.1,0.5,1.2,1.1c3.6,10.2,7.2,20.5,10.9,30.6c0.5,1.5-0.3,1.6-1.3,2
		c-1.1,0.4-1.8,0.6-2.3-0.8c-1.3-4-2.9-7.9-4.1-11.9c-0.6-1.9-1.4-2.2-3.1-1.4c-1.8,0.8-3.7,1.5-5.7,2c-2,0.5-2.5,1.3-1.7,3.3
		c1.5,3.7,2.7,7.5,4.1,11.3c0.5,1.3,0.5,1.8-1,2.3c-1.5,0.5-2,0.4-2.5-1.2c-3.5-10-7-19.9-10.6-29.9c-0.4-1.2-0.5-1.9,1-2.4
		c1.5-0.5,2.1-0.3,2.6,1.2c1.3,4,2.8,7.9,4.1,11.9c0.4,1.2,0.9,1.8,2.3,1.1c2.8-1.2,6.9-1.4,8.1-3.4c1.3-2.1-1.5-5.4-2.3-8.3
		c-0.5-1.7-1-3.3-1.8-4.9C372,611.3,373.8,611.2,375.2,610.8z"/>
	<path class="st2" d="M314.4,558.1c1.7-1.1,3.6-1.6,5.6-1.6c56.7,0,113.4,0,170.1,0c0.4,0,0.7,0,1.2,0.1c-0.4,2-2,1.5-3.2,1.5
		c-21,0-42.1,0-63.1,0C388.1,558.1,351.3,558.1,314.4,558.1z"/>
	<path class="st1" d="M200.3,639.2c-2.7-0.5-3.5-1.5-2.7-4.3c1.8-6,1.5-5.8-4.1-8.9c-2.4-1.3-3.8-1.2-5.1,1.2
		c-0.7,1.3-1.8,2.3-2.6,3.5c-0.7,1.1-1.4,1-2.5,0.5c-1.4-0.6-1.7-1.1-0.6-2.5c6.6-8.5,13.2-17,19.7-25.6c0.9-1.1,1.5-1.4,2.9-0.7
		c3.9,1.9,4,1.9,2.9,6.1C205.5,618.7,202.9,629,200.3,639.2z"/>
	<path class="st1" d="M345,657.1c-5.6,0-9.1-3.7-8.8-9.3c0.1-1.7,1.6-1.1,2.5-1.6c1.1-0.5,1.1,0.4,1.3,1.2c0.1,0.8,0.5,1.6,0.5,2.4
		c0.2,3.6,3,5.1,6.7,4.4c3.5-0.7,4.8-3.1,4.1-6.7c-0.4-2.4-1.6-3.9-3.7-5c-3.7-2-7.2-4.2-11-6.2c-3.2-1.7-4.2-4.6-4.2-7.8
		c0-3,2-5,4.6-6.3c2.8-1.4,5.7-1.8,8.8-0.9c3.4,1,5.9,4.8,5.5,8.3c-0.2,1.5-1.6,1-2.4,1.4c-0.9,0.5-1.3-0.1-1.4-1
		c-0.1-0.7-0.3-1.4-0.5-2.1c-0.7-3.2-2.8-4.7-5.9-4.1c-2.4,0.4-4.4,1.4-5.1,4c-0.6,2.2,0.9,5.1,3.1,6.4c3.5,2,6.9,4.2,10.5,5.9
		c5.1,2.4,5.9,7.3,5.3,10.7C354.4,654.4,349.8,657.1,345,657.1z"/>
	<path class="st1" d="M423.4,586.5c6.6,0,11.8,8.7,8.6,14.6c-1.2,2.1-3,3.7-4.8,5.2c-1.1,0.9-1.2,1.5-0.2,2.6
		c2.7,2.9,5.1,5.9,7.8,8.8c1.1,1.2,0.9,1.8-0.2,2.8c-1.2,1-1.7,0.7-2.6-0.3c-6.9-8-13.9-16-20.9-23.9c-0.9-1-1.1-1.7,0.1-2.6
		c1.8-1.4,3.4-3,5.2-4.5C418.4,587.6,420.7,586.5,423.4,586.5z"/>
	<path class="st3" d="M260.8,556c-1.4,1.3-2.8,1.3-4.1,1.3c-47.8,0-95.6,0.1-143.5,0.1c-1.2,0-2.6,0.4-3.2-1.5
		C160.3,556,210.4,556,260.8,556z"/>
	<path class="st1" d="M278.6,642.3c0-5,0.1-10,0-15.1c-0.1-2.4,0.8-2.9,3-2.7c3.5,0.3,7.1,0.4,10.7,0.5c0.9,0,1.8-0.1,1.8,1.3
		c0,1.6-0.9,1.4-2,1.4c-2.6-0.1-5.1-0.2-7.7-0.4c-1.4-0.1-2.1,0-2.1,1.8c0,3.4-0.2,6.8-0.5,10.1c-0.1,1.3,0.3,1.8,1.6,1.7
		c1.6,0,3.3,0.1,4.9,0.2c0.9,0.1,2.1-0.3,2,1.4c-0.1,1.5-1,1.4-2,1.4c-2.2,0-5-1.3-6.3,0.2c-1.1,1.3-0.6,4.2-0.7,6.4
		c-0.1,2.2-0.8,4.9,0.2,6.4c1,1.4,3.9,0.4,6,0.6c1.5,0.1,2.9,0.3,4.4,0.3c1.1,0,1.4,0.4,1.4,1.5c0,1.1-0.5,1.4-1.5,1.3
		c-4.3-0.2-8.6-0.4-12.9-0.5c-1.8,0-1.5-1.1-1.5-2.2c0-5.2,0-10.4,0-15.6C277.8,642.3,278.2,642.3,278.6,642.3z"/>
	<path class="st1" d="M237.4,362.6c-5-8.5-8.6-17.5-7.8-27.6c0.3-3.5,1.7-4.9,3.8-4.5c3,0.5,6.1,4.3,5.7,6.7
		c-0.2,1.2-0.8,0.9-1.6,0.7c-3.3-0.6-4.2,0.1-4.4,3.5c-0.3,5.6,1.3,10.8,4,15.7C238,358.9,238.1,360.6,237.4,362.6z"/>
	<path class="st1" d="M359.8,475.1c4.7-3.1,7.1-7.4,9.5-11.8c1-1.9,2.6-3,4.8-3.2c2.4-0.2,4.4,0.6,5.3,3c0.8,2.3-0.1,4.3-2.3,5.5
		c-1.4,0.7-2.8,1.2-4.3,1.8c-2.5,1-5,1.8-7,3.5C364.1,475.2,362.4,475.6,359.8,475.1z"/>
	<path class="st1" d="M354.8,362.5c-0.5-2.2,0-4,1-5.8c2.6-4.8,4.1-10,3.6-15.5c-0.3-3.3-1.2-3.9-4.4-3.3c-1.1,0.2-1.4,0.1-1.5-1.1
		c-0.1-2.8,3.9-6.7,6.6-6.4c2.1,0.2,2.5,2,2.8,3.6c0.5,3.4,0.2,6.7-0.5,10.1c-1.1,6-3.3,11.7-6.3,17.1
		C355.9,361.7,355.8,362.5,354.8,362.5z"/>
	<path class="st1" d="M432.4,473.6c-3.5,0-6.7-2.9-6.8-5.9c0-3.2,3.3-6,7-5.9c3.7,0.1,6.7,2.9,6.6,6
		C439.1,471,435.9,473.7,432.4,473.6z"/>
	<path class="st4" d="M236.1,347.5c0.6,1.6,1.1,3.2,1.8,4.7c0.6,1.3,0.7,2.5-0.2,4.4c-1.3-3.4-2.6-6-2.6-9.2
		C235.5,347.1,235.8,347.1,236.1,347.5z"/>
	<path class="st5" d="M357.4,346.9c-0.5,3.1-0.9,6.3-2.9,8.9c-0.8-3.4,1.4-6,2.4-8.9C357.1,346.7,357.3,346.7,357.4,346.9z"/>
	<path class="st6" d="M275.1,267.9c-2.9,0-5.9-0.1-8.8-0.1c1.3-1.1,3.1,0.2,4.4-0.9c1.5-0.2,2.9,0.5,4.4,0.6
		c0.1,0.1,0.2,0.2,0.1,0.3C275.2,267.8,275.2,267.9,275.1,267.9z"/>
	<path class="st7" d="M335.6,262.8c0.7,1,0.5,2.2,0.6,3.3c0.2,0.6,0,0.7-0.5,0.6c-0.2-0.9-0.4-1.8-0.5-2.7
		C335.2,263.6,335.4,263.2,335.6,262.8z"/>
	<path class="st8" d="M296,259c1,0.6,1.9,1.3,1.8,2.8c-0.6-0.7-1.2-1.4-1.8-2.1C296,259.5,296,259.3,296,259z"/>
	<path class="st9" d="M357.4,346.9l-0.2,0h-0.2c-0.7-0.9,0.3-1.3,0.3-2.6C358.1,345.6,357.7,346.2,357.4,346.9z"/>
	<path class="st10" d="M270.2,443c-0.4-1-0.8-1.9-1.3-3.3c1.1,0.8,1.7,1.3,1.9,2.1C270.5,442.2,270.4,442.6,270.2,443z"/>
	<path class="st11" d="M236.1,347.5c-0.3,0-0.6,0-0.9,0c-0.2-0.7-0.7-1.3-0.1-2.3C235.6,345.9,236.1,346.5,236.1,347.5z"/>
	<path class="st12" d="M349.9,387.5c-0.5,0.7-0.9,1.5-2.3,1.6c0.6-1,1.1-1.7,1.6-2.4C349.4,387,349.6,387.3,349.9,387.5z"/>
	<path class="st13" d="M317.5,257.4c0.6,0.6,0.8,1.4,1,2.2c-0.1,0.3-0.3,0.3-0.5,0.1c-0.5-0.6-0.9-1.4-1-2.2
		C317,257.4,317.3,257.4,317.5,257.4z"/>
	<path d="M250.4,329.2c-6.7,0.9-7.2,0.8-5.4-5.8c1.9-7,1.8-14,2.6-21.1c0.5-3.9,1.8-7.4,4-10.6c2.4-3.5,4.9-4.4,9-3.1
		c11.1,3.4,22.4,5.9,34,6.1c12.4,0.2,24.4-2.2,36.2-5.7c6.3-1.8,9-0.6,11.8,5.3c1.5,3.3,2.6,6.8,2.5,10.3c-0.3,8.5,1.6,16.7,2.9,25
		c-1.9,0.4-3.7-0.2-5.5-0.4c-0.7-0.6-1.6-0.9-2.5-1.1c-7.5-3.5-15.2-3.6-23.2-1.6c-3.6,0.9-7.3,1.5-11,2.2c-0.8,0.2-1.6,0.1-2.5,0.3
		c-0.2,0.1-0.3,0.2-0.4,0.4c0.1,0.5,0.6,0.6,0.9,0.9c0.6,0.5,1.3,0.9,0.7,1.8c-5.6,3-11.3,2.9-16.9,0c-1.1-1.4,1-1.6,1-2.9
		c-5.5-1.5-11.1-2.4-16.7-3.4c-4.2-0.8-8.3-0.9-12.5,0c-2.2,0.5-4.3,1.4-6.4,2.3C252.4,328.4,251.4,328.7,250.4,329.2z"/>
	<path d="M329.4,392c-3.8-2.9-7.6-5.7-11.3-8.6c-3.8-3-8.1-4.5-12.8-5.1c-1.6-0.2-3-0.1-4.4,0.9c-2.3,1.5-5.1,2.1-7.5,0.7
		c-5.5-3.1-10.5-1.1-15.2,1.4c-4.2,2.1-7.8,5.4-11.4,8.4c-2.3,1.9-4.6,3.7-7.8,4.6c0.1-0.4,0.1-0.5,0.2-0.6
		c5.7-4.4,5.4-4.4,3.5-11.3c-1.8-6.3-5.2-11.1-9.6-15.9c-7.3-7.9-11.1-17.4-9.9-28.9c2.3,2.1,3,4.5,3.9,6.9c1.2,3.1,2.2,6.2,3.5,9.2
		c1.1,2.6,2.9,4.2,5.9,4.6c7.3,1,14.6,1.1,21.9,0.7c2.7-0.2,4.9-1.9,6.7-3.9c3.1-3.2,5-7.2,7.1-11c0.9-1.7,1.8-3.5,4.2-3.4
		c2.2,0.1,3.1,1.8,4,3.4c2,3.6,3.8,7.3,6.5,10.4c2.6,3.1,5.8,4.8,10,4.8c5.9-0.1,11.9-0.1,17.8-0.7c3.7-0.4,6.4-2,7.7-5.5
		c1.2-3.2,2.4-6.5,3.6-9.7c0.7-1.8,1.4-3.5,3.2-5.7c0,3.6,0.9,6.5,0.2,9.3c-2,7.9-4.8,15.4-11,21c-4,3.6-6.7,7.9-7.9,13.1
		c-0.4,1.6-0.8,3.2-1.6,4.6c-1.4,2.5-0.8,4.2,1.3,5.8C330.2,391.9,330,392.1,329.4,392z"/>
	<path class="st14" d="M314.1,395.7c1.5,0.8,3.1,1.6,4.4,3c-3.7,2.7-7.6,4.1-12,2.6c-6.8-2.3-13.4-2.4-20.2-0.1
		c-4.6,1.5-8.1,0.5-12.3-2.7c1-1,2-1.8,3.3-2.1c0.5,0,0.9,0,1.4,0.1c2,0.9,4,1.1,6.1,0.8c2.7-0.4,5.5-0.3,8.2,0.1
		c1.8,0.3,3.6,0.2,5.5,0c2.7-0.4,5.4-0.9,8.2-0.3C309.4,397.6,311.6,396.2,314.1,395.7z"/>
	<path class="st15" d="M305.3,328.2c6.2-1.3,12.5-2.7,18.8-3.8c6-1,11.6,0.7,16.9,3.3c0.8,0.6,1,1.4-0.2,1.3
		c-2.2-0.1-4.5,0.2-6.6-0.8c-0.3,0-0.5,0-0.8,0c-3.2,0.5-6.3,0.5-9.5,0c-0.4,0.2-0.9,0.4-1.3,0.6c-1.8,0.5-3.6-0.4-5.3,0.2
		c-0.5,0.1-1.1,0-1.6,0c-0.9-0.2-1.8,0.7-2.8,0.3c-0.2,0-0.4,0-0.5,0c-1,0.8-2.2,0.6-3.3,1.1c-1.5,0.5-2.9,1.1-4.4,1.6
		c0.3-1-0.8-1-1.1-1.6c-0.4-0.5-1.4-0.6-1-1.6l0,0C303.4,328,304.6,329,305.3,328.2z"/>
	<path class="st2" d="M252.6,327.6c6.2-3.1,12.5-4.1,19.4-2.8c6.3,1.2,12.6,2.3,18.9,4c-0.4,1.8-2.8,1.4-2.9,3.2
		c-0.9,0-1.6-0.4-2.3-0.9c-0.5-0.8-1.6-0.5-2.1-1.2c-0.2,0-0.4,0-0.6,0c-1.9,0.3-3.6-0.7-5.4-0.8c-0.4,0-0.9,0-1.3-0.1
		c-1.3-0.3-2.6-0.1-4-0.2c-0.9,0-1.8-0.4-2.8-0.3c-2.8,0-5.5,0-8.3,0c-0.9,0-1.9-0.1-2.8,0.1c-1.3,0.3-2.7-0.1-4,0.3
		C253.7,328.5,251.5,330.3,252.6,327.6z"/>
	<path class="st16" d="M314.1,395.7c-2.3,2.1-5,2.8-8.1,2.1c-0.4-0.1-0.9-0.2-1.3-0.1c-7,1.4-14.1-0.4-21.1,0.5
		c-2.1,0.3-4-0.2-5.7-1.4c0.4-1.7,2.1-0.7,3-1.6c6.8-1.7,13.8-2,20.8-2c2.8,0,5.4,0.7,8,1.5c1.2,0.3,2.4,0.8,3.7,0.5
		C313.7,395.4,313.9,395.5,314.1,395.7z"/>
	<path class="st17" d="M313.5,395.2c-1.8,1.2-3.5,0.2-5.2-0.1c-3.6-0.7-7.2-0.5-10.8-0.9c-5.9-0.6-11.1,1.5-16.8,1.6
		c-0.6,0-1.5,0.7-1.7-0.5c3.9-1.8,8.2-2.4,12-4c3.5-1.5,6.4-1.8,10,0C305,393.1,309.3,393.9,313.5,395.2z"/>
	<path class="st18" d="M315.2,332.5c-3.9,0.5-7.6,1.4-11.1,3.2c-4.3,2.1-8.9,2.1-13.5,0.7c-0.1-0.5,0-0.8,0.7-0.6
		c5.2,1.1,10,0.4,14.7-2.1c2.4-1.2,5.1-1.9,7.9-1.7C314.4,332,315.1,331.4,315.2,332.5z"/>
	<path class="st19" d="M269.1,332c-5.5,0-11,0-16.6,0c0-0.1,0-0.2,0-0.3c3.4-0.2,6.7-0.4,10-0.5c1.7,0.3,3.4,0,5.1,0.2
		C268.3,331.3,269.1,331,269.1,332z"/>
	<path class="st20" d="M330,331c1.6,0,3.1-0.3,4.6,0.2c0,0.3,0,0.5,0,0.8c-3.4,0-6.7,0-10.1,0c0.2-1.4,1.2-0.7,1.9-0.8
		C327.6,331.1,328.8,331.5,330,331z"/>
	<path class="st21" d="M334.2,328.2c1.9,0.1,3.7,0.3,5.6,0.4c0.6,0,1.6,0.5,1.2-0.9c1.1,0,1.6,0.5,1.7,1.5c-2.2,0-4.4,0-6.6,0
		C335.4,329.2,334.4,329.4,334.2,328.2z"/>
	<path class="st21" d="M269.1,332c-2.1-1.1-4.4,0.1-6.5-0.9c3.5-0.2,7-0.4,10.5,0.3c-0.4,0.7-1.3,0.1-1.8,0.6
		C270.6,332,269.9,332,269.1,332z"/>
	<path class="st22" d="M277.3,328.8c1.9-0.1,3.8,0.3,5.5,1.1c-2,1.4-3.7-0.2-5.5-0.6c-0.2-0.1-0.2-0.2-0.2-0.3
		C277.2,328.8,277.3,328.8,277.3,328.8z"/>
	<path class="st23" d="M330,331c-1.6,1.2-3.8-0.1-5.4,1c-0.7,0-1.5,0-2.2-0.1c-0.3-0.3-0.3-0.6,0-0.9C324.9,331,327.4,331,330,331z"
		/>
	<path class="st24" d="M315.2,332.5c-0.4-0.5-0.9-0.5-1.4-0.5c1.6-0.9,3.4-0.4,5.1-0.6c1,0,2.1-0.9,2.8,0.5
		C319.6,332.1,317.4,332.3,315.2,332.5z"/>
	<path class="st25" d="M323.9,328.2c3.2,0,6.3,0,9.5,0C330.3,329.3,327.1,329.2,323.9,328.2z"/>
	<path class="st26" d="M271.4,332c0.4-0.6,1.2-0.3,1.8-0.6c1.8,0.2,3.7-0.2,5.5,0.6c-0.1,0.4-0.4,0.4-0.7,0.5
		C275.7,332.3,273.5,332.2,271.4,332z"/>
	<path class="st27" d="M260.9,328.3c2.9,0,5.8,0,8.8,0c0.2,0.1,0.2,0.2,0.2,0.3c-0.1,0.1-0.1,0.2-0.2,0.2c-2.9,0-5.9,0-8.8,0
		c-0.2-0.1-0.2-0.2-0.2-0.3C260.8,328.3,260.8,328.3,260.9,328.3z"/>
	<path class="st28" d="M254.2,328.7c1.3-0.6,2.6-0.5,4-0.4c0.2,0.2,0.6,0.2,0.6,0.6c-1.1,0.5-2.3,0.4-3.4,0.4
		C255,328.9,254.4,329.2,254.2,328.7z"/>
	<path class="st29" d="M254.2,328.7c0.4,0.2,0.8,0.4,1.2,0.6c-1.6,0-3.3,0-4.9,0c0.5-0.8,1-1.6,2.2-1.6
		C252,329.6,253.7,328.3,254.2,328.7z"/>
	<path class="st30" d="M317.3,328.7c1.8-1,3.6,0.1,5.4,0.1c-1.1,0.6-2.4,0.5-3.6,0.5C318.5,328.8,317.7,329.3,317.3,328.7z"/>
	<path class="st22" d="M272.4,328.3c1.4-0.1,2.7-0.1,4,0.4c-0.6,0.8-1.6,0.1-2.3,0.5c-1.2,0.1-2.4,0.1-3.5-0.4
		C271.1,328.2,271.9,328.8,272.4,328.3z"/>
	<path class="st31" d="M335.6,266.7c0.2-0.2,0.4-0.4,0.5-0.6c0.7,1.5,0.5,3.1,0.1,4.7C336,269.5,335.8,268.1,335.6,266.7z"/>
	<path class="st32" d="M329.4,392c0.2-0.2,0.5-0.5,0.7-0.7c0.8,0.4,1.6,0.9,2.2,2.1C330.9,393.2,330,392.8,329.4,392z"/>
	<path class="st33" d="M283.4,332.7c1,0.1,2,0.3,2.8,1c-0.1,0.2-0.3,0.4-0.6,0.5c-1-0.2-2-0.3-2.9-0.9
		C282.8,332.9,283.1,332.9,283.4,332.7z"/>
	<path class="st34" d="M291.2,335.8c-0.2,0.2-0.4,0.4-0.7,0.6c-0.9-0.2-1.9-0.3-2.3-1.5C289.4,334.7,290.3,335.3,291.2,335.8z"/>
	<path class="st35" d="M279.1,395.3c0.6,0.2,1.1,0.4,1.7,0.5c-0.8,0.8-2.2-0.1-2.9,1c-0.3,0-0.5-0.1-0.5-0.5
		C277.7,395.6,278.5,395.6,279.1,395.3z"/>
	<path class="st36" d="M339.5,331.8c-1.2,0.4-2.4,0.4-3.8,0C337,331.3,338.2,331.5,339.5,331.8z"/>
	<path class="st9" d="M309.2,330.5c0.9-0.9,2.1-1,3.3-1.1C311.7,330.8,310.4,330.3,309.2,330.5z"/>
	<path class="st37" d="M283.4,332.7c-0.2,0.2-0.4,0.4-0.7,0.6c-0.9-0.2-1.9,0-2.7-0.6c0.1-0.3,0.4-0.4,0.7-0.5
		C281.5,332.4,282.5,332.5,283.4,332.7z"/>
	<path class="st22" d="M313,329.3c0.9-0.4,1.8-0.7,2.8-0.5c0.2,0.1,0.2,0.2,0.2,0.3s-0.1,0.1-0.2,0.1
		C314.9,329.4,313.9,330.5,313,329.3z"/>
	<path class="st38" d="M321.8,332c-0.8-0.8-1.9-0.1-2.8-0.5c1.1-0.5,2.2-0.5,3.4-0.4c0,0.3,0,0.6,0,0.9C322.2,332,322,332,321.8,332
		z"/>
	<path class="st39" d="M275.1,267.9c-0.1-0.1-0.1-0.3,0-0.5c0.9,0.2,1.7,0.4,3.2,0.7C276.8,268.5,275.9,268.7,275.1,267.9z"/>
	<path class="st21" d="M317.9,259.7c0.2,0,0.4,0,0.5-0.1c0.5,0.7,0.8,1.4,0.7,2.2c-0.2,0.2-0.4,0.2-0.6,0
		C318.4,261.1,317.7,260.5,317.9,259.7z"/>
	<path class="st40" d="M274.1,329.2c0.6-0.6,1.5-0.2,2.3-0.5c0.3,0,0.6,0.1,1,0.1c0,0.2,0,0.3,0,0.5
		C276.3,329.2,275.2,329.2,274.1,329.2z"/>
	<path class="st41" d="M283.5,329.9c0.8,0.3,2-0.1,2.1,1.2C284.8,330.9,283.8,331,283.5,329.9z"/>
	<path class="st40" d="M315.8,329.2c0-0.1,0-0.3,0-0.4c0.5,0,1-0.1,1.5-0.2c0.6,0.2,1.1,0.4,1.7,0.6
		C318,329.2,316.9,329.2,315.8,329.2z"/>
	<path d="M285.6,334.2c0.2-0.2,0.4-0.3,0.6-0.5c0.7,0,1.2,0.4,1.7,0.9C286.9,335.1,286.3,334.4,285.6,334.2z"/>
	<path class="st42" d="M318.5,261.8c0.2,0,0.4,0,0.6,0c0.6,0.7,0.6,1.4,0.4,2.2l-0.3,0C319,263.2,318.8,262.5,318.5,261.8z"/>
	<path class="st43" d="M272.4,328.3c-0.6,0.2-1.1,0.4-1.7,0.6c-0.3,0-0.6-0.1-1-0.1c0-0.2,0-0.3,0-0.5
		C270.6,328.3,271.5,328.3,272.4,328.3z"/>
	<path class="st44" d="M280.6,332.2c-0.2,0.2-0.4,0.3-0.7,0.5c-0.7,0-1.4-0.1-2.1-0.2c0.2-0.2,0.5-0.4,0.7-0.5
		C279.3,332,280,332.1,280.6,332.2z"/>
	<path class="st45" d="M258.8,328.9c-0.2-0.2-0.4-0.4-0.6-0.6c0.9,0,1.8,0,2.7,0c0,0.2,0,0.3,0,0.5
		C260.2,328.8,259.5,328.8,258.8,328.9z"/>
	<path class="st11" d="M320.5,269c-0.5-0.6-0.4-1.2-0.2-1.8C321,267.8,320.7,268.4,320.5,269z"/>
	<path class="st46" d="M319.2,264l0.3,0c0.9,0.4,0.6,1.1,0.6,1.8C319.2,265.4,319.7,264.5,319.2,264z"/>
	<path d="M116.2,492.6c0-7.6,0.1-15.2,0-22.8c0-2,0.6-2.5,2.5-2.4c5.2,0.1,10.4,0,15.6,0.1c4.5,0.1,6.5,1.8,6.5,6.3
		c0.2,12.6,0.1,25.2,0,37.8c0,4.2-2.2,6.2-6.7,6.3c-5.5,0.2-11,0-16.4,0.1c-1.9,0-1.5-1.2-1.5-2.2
		C116.2,508.1,116.2,500.4,116.2,492.6z"/>
	<path d="M177.4,499c0-4.2-0.1-8.4,0-12.6c0.1-4.1,2.1-5.9,6.1-6.2c1.2-0.1,2.4-0.1,3.6,0c3.8,0.3,5.9,2,6,5.8
		c0.2,8.8,0.2,17.5,0,26.3c-0.1,3.5-1.9,5-5.3,5.6c-1.8,0.3-3.6,0.3-5.4-0.1c-3.3-0.7-4.8-2.3-4.9-5.6
		C177.3,507.8,177.4,503.4,177.4,499C177.4,499,177.4,499,177.4,499z"/>
	<path d="M370.9,490.8c-2.1,0-4.2-0.1-6.3,0c-1.5,0.1-1.8-0.5-1.8-1.9c-0.2-7.6,6.1-11.5,13-8c2.4,1.2,4.3,6.9,3.1,9.3
		c-0.4,0.8-1.1,0.5-1.7,0.5C375.1,490.8,373,490.8,370.9,490.8z"/>
	<path class="st14" d="M260.6,645.4c-0.2,1.2-0.5,2.4-0.6,3.5c-0.3,2.9-2.1,4-4.7,4.5c-0.5,0.1-1.1,0.1-1.6,0
		c-5.1-0.5-5.1-0.5-4.3-5.5c0.4-2.3,0.9-4.7,1.1-7c0.2-1.5,0.8-1.8,2.1-1.5c1.9,0.4,3.8,0.5,5.5,1.5
		C259.7,642,260.7,643.4,260.6,645.4z"/>
	<path class="st14" d="M256.9,637.2c-5.3-0.1-5.6-0.3-4.7-5.6c0.3-1.8,0.9-3.6,0.9-5.4c-0.1-3.3,1.6-3.3,4.1-2.8
		c7.7,1.5,6.9,5.7,5,11.4C261.5,636.6,259.3,637.3,256.9,637.2z"/>
	<path class="st14" d="M180.3,604.9c-4.3-0.2-6.2-2.4-8.4-4.1c-0.6-0.5,0-1,0.3-1.4c2.3-2.9,4.5-5.7,6.8-8.6
		c0.5-0.6,0.9-1.1,1.7-0.4c1.4,1.2,3,2.1,4.1,3.6c1.2,1.7,2.1,3.7,0.8,5.5C183.8,601.9,182.7,605,180.3,604.9z"/>
	<path class="st14" d="M175.9,611.1c-0.5,2.3-2.4,4.5-4.7,6.1c-2,1.4-4.2,0.4-6.1-0.8c-4.1-2.8-4.1-2.8-1-6.7c1.5-1.9,3-3.9,4.6-5.8
		c0.3-0.4,0.4-1.2,1.4-0.9C172.5,603.8,175.9,608,175.9,611.1z"/>
	<path d="M319.2,634.6c0.3,4.2-1.2,6.1-5.7,6.6c-5.5,0.6-4.4,1-4.8-3.9c-0.2-2.5-0.3-4.9-0.6-7.3c-0.2-1.7,0.4-2.3,2.1-2.2
		c0.4,0,0.9,0,1.4,0C317.3,627.5,318.8,628.8,319.2,634.6z"/>
	<path d="M229.3,629.2c-1.9,0-3.7-0.8-5.5-1.3c-1.1-0.3-0.9-1-0.7-1.7c1.1-3.5,2.2-6.9,3.3-10.4c0.3-0.8,0.6-1.3,1.5-0.9
		c1.7,0.7,3.5,0.9,5.1,1.9c2.5,1.6,3.1,3.5,2.3,6.3C233.8,628.1,232.6,629.2,229.3,629.2z"/>
	<path d="M396.3,604.1c2,0,3.2,0.6,4,2c3.7,6.3,7.4,12.5,11.1,18.8c1.5,2.5,0.5,5.2-2.4,6.8c-3,1.7-5.5,1.3-7.1-1.3
		c-3.5-5.8-6.9-11.8-10.5-17.6c-1-1.8-1.8-3.4-0.6-5.3C392.1,605.3,394.1,604.2,396.3,604.1z"/>
	<path class="st14" d="M205.1,605.8c-0.4,1.8-0.7,2.8-1,3.9c-1.4,5.4-2.8,10.8-4.3,16.4c-2.6-1.3-5.1-2.5-7.7-3.8
		c3.9-5,7.6-9.9,11.4-14.7C203.9,607.2,204.2,606.8,205.1,605.8z"/>
	<path class="st14" d="M422.5,589.6c1,0.1,2.2,0.4,3,1.3c0.4,0.4,0.7,0.8,1.1,1.2c4.5,5.2,4,8.7-1.8,12.6c-1,0.7-1.2,0.1-1.7-0.4
		c-2.6-3-5.2-5.9-7.7-8.9c-0.3-0.3-1.1-0.8-0.5-1.3C417,592.2,419,589.8,422.5,589.6z"/>
	<path class="st47" d="M302.6,328.8c0.4,0.5,0.7,1.1,1,1.6C302.1,329.9,301.9,329.6,302.6,328.8z"/>
	<path class="st47" d="M305.3,328.2c-0.7,0.8-1.7,0.6-2.7,0.6C303.4,327.9,304.4,328.2,305.3,328.2z"/>
</g>
</svg>
