<?xml version="1.0" encoding="utf-8"?>
<!-- Generator: Adobe Illustrator 27.4.0, SVG Export Plug-In . SVG Version: 6.00 Build 0)  -->
<svg version="1.1" id="Camada_1" xmlns="http://www.w3.org/2000/svg" xmlns:xlink="http://www.w3.org/1999/xlink" x="0px" y="0px"
	 viewBox="0 0 250 250" style="enable-background:new 0 0 250 250;" xml:space="preserve">
<style type="text/css">
	.st0{fill:#FEFEFD;}
	.st1{fill:#FCFEFC;}
	.st2{fill:#ECECEC;}
	.st3{fill:#EDEDED;}
	.st4{fill:#050405;}
	.st5{fill:#080608;}
	.st6{fill:#323232;}
	.st7{fill:#909191;}
	.st8{fill:#363637;}
	.st9{fill:#B4B4B3;}
	.st10{fill:#232323;}
	.st11{fill:#040304;}
	.st12{fill:#F9FBF9;}
	.st13{fill:#FBFCFB;}
	.st14{fill:#FCFDFC;}
	.st15{fill:#030103;}
	.st16{fill:#100F10;}
	.st17{fill:#7C7C7C;}
	.st18{fill:#ADAEAE;}
	.st19{fill:#515150;}
	.st20{fill:#727172;}
	.st21{fill:#565655;}
	.st22{fill:#121213;}
	.st23{fill:#141415;}
	.st24{fill:#161617;}
	.st25{fill:#1E1E1F;}
	.st26{fill:#6A6A6A;}
	.st27{fill:#444444;}
	.st28{fill:#6B6A6A;}
	.st29{fill:#535454;}
	.st30{fill:#2E2E2F;}
	.st31{fill:#303030;}
	.st32{fill:#414141;}
	.st33{fill:#545455;}
	.st34{fill:#818182;}
	.st35{fill:#030203;}
	.st36{fill:#5B5B5A;}
	.st37{fill:#2C2C2C;}
	.st38{fill:#3A3C3C;}
	.st39{fill:#999A9A;}
	.st40{fill:#5C5C5C;}
	.st41{fill:#414241;}
	.st42{fill:#020002;}
	.st43{fill:#434444;}
	.st44{fill:#767675;}
</style>
<path class="st0" d="M180,169.1c0.7-0.2,0.9-1.2,1.9-1.1c0.5,1.1,0.1,2.3-0.4,3.3c-3.8,8.3-4.8,17.2-5.3,26.1
	c-0.7,10.9-6.2,18.6-14.9,24.5c-2.8,1.9-5.7,3.7-9.1,4.9c-0.2-1.8,1-3.1,0.6-4.7c-1.4,1-2.2,2.4-2.7,3.8c-0.9,2.2-2.5,3.2-4.6,3.8
	c-5.6,1.8-11.4,3.5-17.2,3.8c-8.2,0.5-16.1-1.8-23.6-4.8c-2.2-0.9-2.2-3.9-3.9-5.4c-0.2-0.1-0.5-0.3-0.6-0.5
	c-0.2,0.6-0.2,1.1,0.1,1.7c-0.1,0.7,0.6,1.5,0,2c-0.6,0.6-1.4-0.1-2-0.4c-4.6-2.2-8.8-5.1-12.6-8.6c-6.7-6.1-9-13.9-9.5-22.6
	c-0.4-7.8-1.5-15.4-4.8-22.6c-0.7-1.5-0.7-2.3-0.6-4.2c1.1-0.5,1.3,1.2,2.4,0.9c0.6-0.9-0.1-1.6-0.6-2.1c-2.8-2.8-2.8-6.4-2.9-9.9
	c-0.4-11,0.1-21.9,0.5-32.9c0.4-11.7-0.7-23.3-4.3-34.4c-6.1-18.4,5-32.9,19.9-38.1c3.4-1.2,7-2,10.6-2.3c2.6-0.2,5.3-0.5,7.9-0.2
	c0.9,0,1.7,0.4,2.6,0.6c-0.3-0.1-0.7-0.1-1-0.3c-0.3-0.1-0.7-0.3-1-0.3c-1.4,0-2.8,0-4.1-0.7c-16.5-1.3-33.4,6-40,25.1
	c-0.2,0.5-0.5,1-0.7,1.4c-0.8-0.1-0.7-0.6-0.8-1c-1.9-19.3,7.8-39.6,30.4-45.1c5.3-1.3,10.5,0.3,15.6,1.6c7.7,2.1,14.4,6,20.6,10.9
	c0.3,0,0.5,0.2,0.8,0.2c-0.4-0.2-0.5-0.6-0.8-0.9c-10.1-9.9-22.5-14.7-37-16.1c5.9-2.4,11.4-3.6,17-4.8c18.4-3.8,31.3,4.2,40.9,19.2
	c0.7,0.6,0.8,1.5,1.3,2.2c0.2,0.7,0.5,1.4,0.7,2.1c0.5,0.6,0.6,1.3,0.5,2.1c0.1,0.4,0.4,0.7,0.5,1.1c0-0.4-0.3-0.7-0.4-1
	c-0.1-0.7,0-1.5-0.5-2.1c-0.2-0.7-0.5-1.4-0.7-2.1c-0.4-0.8-0.9-1.5-0.8-2.4c-3.4-8.9-9.9-15-18.1-20c12.5-0.4,22.3,4.2,29.6,13.9
	c2.9,3.8,4.8,8.1,6.2,12.7c0.7,0.8,0.6,1.8,0.9,2.7c0,1.2,0.5,2.3,0.3,3.4c0,0.4,0.3,0.1,0.3,0.1c-0.5-1.3-0.4-2.8-0.8-4.1
	c-0.4-1.1,0.1-2.2-0.3-3.2c-1.1-7.4-4.8-13.4-9.6-19.1c2.5,0,8.8,3.2,12,5.9c7.2,6.1,11.1,14.1,12.9,23.2c0.2,1.1-0.1,2-0.6,2.9
	c-0.9,1.7-1.7,3.3-2.4,5.1c3.4-2.7,5.5-6.5,8.1-10.4c2.6,4.5,3.5,8.9,3.7,13.5c0.5,8.1-1.6,15.9-3.4,23.8
	c-3.1,14.3-4.7,28.6-3.7,43.2c0.7,9.6,0.5,19.2,0,28.8c-0.1,1.1-0.3,2.1-1,3c-0.9,1.2-1.6,2.6-2.4,3.9
	C179,169.1,178.9,169.7,180,169.1z"/>
<path class="st1" d="M67.5,144.2c-5-8.5-8.6-17.5-7.8-27.6c0.3-3.5,1.7-4.9,3.8-4.5c3,0.5,6.1,4.3,5.7,6.7c-0.2,1.2-0.8,0.9-1.6,0.7
	c-3.3-0.6-4.2,0.1-4.4,3.5c-0.3,5.6,1.3,10.8,4,15.7C68.1,140.5,68.2,142.2,67.5,144.2z"/>
<path class="st1" d="M184.9,144.1c-0.5-2.2,0-4,1-5.8c2.6-4.8,4.1-10,3.6-15.5c-0.3-3.3-1.2-3.9-4.4-3.3c-1.1,0.2-1.4,0.1-1.5-1.1
	c-0.1-2.8,3.9-6.7,6.6-6.4c2.1,0.2,2.5,2,2.8,3.6c0.5,3.4,0.2,6.7-0.5,10.1c-1.1,6-3.3,11.7-6.3,17.1
	C186,143.3,185.9,144.1,184.9,144.1z"/>
<path class="st2" d="M66.2,129.1c0.6,1.6,1.1,3.2,1.8,4.7c0.6,1.3,0.7,2.5-0.2,4.4c-1.3-3.4-2.6-6-2.6-9.2
	C65.6,128.7,65.9,128.7,66.2,129.1z"/>
<path class="st3" d="M187.5,128.5c-0.5,3.1-0.9,6.3-2.9,8.9c-0.8-3.4,1.4-6,2.4-8.9C187.2,128.3,187.4,128.3,187.5,128.5z"/>
<path class="st4" d="M105.2,49.5c-2.9,0-5.9-0.1-8.8-0.1c1.3-1.1,3.1,0.2,4.4-0.9c1.5-0.2,2.9,0.5,4.4,0.6c0.1,0.1,0.2,0.2,0.1,0.3
	C105.3,49.4,105.3,49.5,105.2,49.5z"/>
<path class="st5" d="M165.7,44.4c0.7,1,0.5,2.2,0.6,3.3c0.2,0.6,0,0.7-0.5,0.6c-0.2-0.9-0.4-1.8-0.5-2.7
	C165.3,45.2,165.5,44.8,165.7,44.4z"/>
<path class="st6" d="M126.1,40.6c1,0.6,1.9,1.3,1.8,2.8c-0.6-0.7-1.2-1.4-1.8-2.1C126.1,41.1,126.1,40.9,126.1,40.6z"/>
<path class="st7" d="M187.5,128.5h-0.2h-0.2c-0.7-0.9,0.3-1.3,0.3-2.6C188.2,127.2,187.8,127.8,187.5,128.5z"/>
<path class="st8" d="M100.3,224.6c-0.4-1-0.8-1.9-1.3-3.3c1.1,0.8,1.7,1.3,1.9,2.1C100.6,223.8,100.5,224.2,100.3,224.6z"/>
<path class="st9" d="M66.2,129.1c-0.3,0-0.6,0-0.9,0c-0.2-0.7-0.7-1.3-0.1-2.3C65.7,127.5,66.2,128.1,66.2,129.1z"/>
<path class="st10" d="M180,169.1c-0.5,0.7-0.9,1.5-2.3,1.6c0.6-1,1.1-1.7,1.6-2.4C179.5,168.6,179.7,168.9,180,169.1z"/>
<path class="st11" d="M147.6,39c0.6,0.6,0.8,1.4,1,2.2c-0.1,0.3-0.3,0.3-0.5,0.1c-0.5-0.6-0.9-1.4-1-2.2C147.1,39,147.4,39,147.6,39
	z"/>
<path d="M80.5,110.8c-6.7,0.9-7.2,0.8-5.4-5.8c1.9-7,1.8-14,2.6-21.1c0.5-3.9,1.8-7.4,4-10.6c2.4-3.5,4.9-4.4,9-3.1
	c11.1,3.4,22.4,5.9,34,6.1c12.4,0.2,24.4-2.2,36.2-5.7c6.3-1.8,9-0.6,11.8,5.3c1.5,3.3,2.6,6.8,2.5,10.3c-0.3,8.5,1.6,16.7,2.9,25
	c-1.9,0.4-3.7-0.2-5.5-0.4c-0.7-0.6-1.6-0.9-2.5-1.1c-7.5-3.5-15.2-3.6-23.2-1.6c-3.6,0.9-7.3,1.5-11,2.2c-0.8,0.2-1.6,0.1-2.5,0.3
	c-0.2,0.1-0.3,0.2-0.4,0.4c0.1,0.5,0.6,0.6,0.9,0.9c0.6,0.5,1.3,0.9,0.7,1.8c-5.6,3-11.3,2.9-16.9,0c-1.1-1.4,1-1.6,1-2.9
	c-5.5-1.5-11.1-2.4-16.7-3.4c-4.2-0.8-8.3-0.9-12.5,0c-2.2,0.5-4.3,1.4-6.4,2.3C82.5,110,81.5,110.3,80.5,110.8z"/>
<path d="M159.5,173.6c-3.8-2.9-7.6-5.7-11.3-8.6c-3.8-3-8.1-4.5-12.8-5.1c-1.6-0.2-3-0.1-4.4,0.9c-2.3,1.5-5.1,2.1-7.5,0.7
	c-5.5-3.1-10.5-1.1-15.2,1.4c-4.2,2.1-7.8,5.4-11.4,8.4c-2.3,1.9-4.6,3.7-7.8,4.6c0.1-0.4,0.1-0.5,0.2-0.6c5.7-4.4,5.4-4.4,3.5-11.3
	c-1.8-6.3-5.2-11.1-9.6-15.9c-7.3-7.9-11.1-17.4-9.9-28.9c2.3,2.1,3,4.5,3.9,6.9c1.2,3.1,2.2,6.2,3.5,9.2c1.1,2.6,2.9,4.2,5.9,4.6
	c7.3,1,14.6,1.1,21.9,0.7c2.7-0.2,4.9-1.9,6.7-3.9c3.1-3.2,5-7.2,7.1-11c0.9-1.7,1.8-3.5,4.2-3.4c2.2,0.1,3.1,1.8,4,3.4
	c2,3.6,3.8,7.3,6.5,10.4c2.6,3.1,5.8,4.8,10,4.8c5.9-0.1,11.9-0.1,17.8-0.7c3.7-0.4,6.4-2,7.7-5.5c1.2-3.2,2.4-6.5,3.6-9.7
	c0.7-1.8,1.4-3.5,3.2-5.7c0,3.6,0.9,6.5,0.2,9.3c-2,7.9-4.8,15.4-11,21c-4,3.6-6.7,7.9-7.9,13.1c-0.4,1.6-0.8,3.2-1.6,4.6
	c-1.4,2.5-0.8,4.2,1.3,5.8C160.3,173.5,160.1,173.7,159.5,173.6z"/>
<path d="M144.2,177.3c1.5,0.8,3.1,1.6,4.4,3c-3.7,2.7-7.6,4.1-12,2.6c-6.8-2.3-13.4-2.4-20.2-0.1c-4.6,1.5-8.1,0.5-12.3-2.7
	c1-1,2-1.8,3.3-2.1c0.5,0,0.9,0,1.4,0.1c2,0.9,4,1.1,6.1,0.8c2.7-0.4,5.5-0.3,8.2,0.1c1.8,0.3,3.6,0.2,5.5,0
	c2.7-0.4,5.4-0.9,8.2-0.3C139.5,179.2,141.7,177.8,144.2,177.3z"/>
<path class="st12" d="M135.4,109.8c6.2-1.3,12.5-2.7,18.8-3.8c6-1,11.6,0.7,16.9,3.3c0.8,0.6,1,1.4-0.2,1.3
	c-2.2-0.1-4.5,0.2-6.6-0.8c-0.3,0-0.5,0-0.8,0c-3.2,0.5-6.3,0.5-9.5,0c-0.4,0.2-0.9,0.4-1.3,0.6c-1.8,0.5-3.6-0.4-5.3,0.2
	c-0.5,0.1-1.1,0-1.6,0c-0.9-0.2-1.8,0.7-2.8,0.3c-0.2,0-0.4,0-0.5,0c-1,0.8-2.2,0.6-3.3,1.1c-1.5,0.5-2.9,1.1-4.4,1.6
	c0.3-1-0.8-1-1.1-1.6c-0.4-0.5-1.4-0.6-1-1.6l0,0C133.5,109.6,134.7,110.6,135.4,109.8z"/>
<path class="st13" d="M82.7,109.2c6.2-3.1,12.5-4.1,19.4-2.8c6.3,1.2,12.6,2.3,18.9,4c-0.4,1.8-2.8,1.4-2.9,3.2
	c-0.9,0-1.6-0.4-2.3-0.9c-0.5-0.8-1.6-0.5-2.1-1.2c-0.2,0-0.4,0-0.6,0c-1.9,0.3-3.6-0.7-5.4-0.8c-0.4,0-0.9,0-1.3-0.1
	c-1.3-0.3-2.6-0.1-4-0.2c-0.9,0-1.8-0.4-2.8-0.3c-2.8,0-5.5,0-8.3,0c-0.9,0-1.9-0.1-2.8,0.1c-1.3,0.3-2.7-0.1-4,0.3
	C83.8,110.1,81.6,111.9,82.7,109.2z"/>
<path class="st14" d="M144.2,177.3c-2.3,2.1-5,2.8-8.1,2.1c-0.4-0.1-0.9-0.2-1.3-0.1c-7,1.4-14.1-0.4-21.1,0.5
	c-2.1,0.3-4-0.2-5.7-1.4c0.4-1.7,2.1-0.7,3-1.6c6.8-1.7,13.8-2,20.8-2c2.8,0,5.4,0.7,8,1.5c1.2,0.3,2.4,0.8,3.7,0.5
	C143.8,177,144,177.1,144.2,177.3z"/>
<path class="st15" d="M143.6,176.8c-1.8,1.2-3.5,0.2-5.2-0.1c-3.6-0.7-7.2-0.5-10.8-0.9c-5.9-0.6-11.1,1.5-16.8,1.6
	c-0.6,0-1.5,0.7-1.7-0.5c3.9-1.8,8.2-2.4,12-4c3.5-1.5,6.4-1.8,10,0C135.1,174.7,139.4,175.5,143.6,176.8z"/>
<path class="st16" d="M145.3,114.1c-3.9,0.5-7.6,1.4-11.1,3.2c-4.3,2.1-8.9,2.1-13.5,0.7c-0.1-0.5,0-0.8,0.7-0.6
	c5.2,1.1,10,0.4,14.7-2.1c2.4-1.2,5.1-1.9,7.9-1.7C144.5,113.6,145.2,113,145.3,114.1z"/>
<path class="st17" d="M99.2,113.6c-5.5,0-11,0-16.6,0c0-0.1,0-0.2,0-0.3c3.4-0.2,6.7-0.4,10-0.5c1.7,0.3,3.4,0,5.1,0.2
	C98.4,112.9,99.2,112.6,99.2,113.6z"/>
<path class="st18" d="M160.1,112.6c1.6,0,3.1-0.3,4.6,0.2c0,0.3,0,0.5,0,0.8c-3.4,0-6.7,0-10.1,0c0.2-1.4,1.2-0.7,1.9-0.8
	C157.7,112.7,158.9,113.1,160.1,112.6z"/>
<path class="st19" d="M164.3,109.8c1.9,0.1,3.7,0.3,5.6,0.4c0.6,0,1.6,0.5,1.2-0.9c1.1,0,1.6,0.5,1.7,1.5c-2.2,0-4.4,0-6.6,0
	C165.5,110.8,164.5,111,164.3,109.8z"/>
<path class="st19" d="M99.2,113.6c-2.1-1.1-4.4,0.1-6.5-0.9c3.5-0.2,7-0.4,10.5,0.3c-0.4,0.7-1.3,0.1-1.8,0.6
	C100.7,113.6,100,113.6,99.2,113.6z"/>
<path class="st20" d="M107.4,110.4c1.9-0.1,3.8,0.3,5.5,1.1c-2,1.4-3.7-0.2-5.5-0.6c-0.2-0.1-0.2-0.2-0.2-0.3
	C107.3,110.4,107.4,110.4,107.4,110.4z"/>
<path class="st21" d="M160.1,112.6c-1.6,1.2-3.8-0.1-5.4,1c-0.7,0-1.5,0-2.2-0.1c-0.3-0.3-0.3-0.6,0-0.9
	C155,112.6,157.5,112.6,160.1,112.6z"/>
<path class="st22" d="M145.3,114.1c-0.4-0.5-0.9-0.5-1.4-0.5c1.6-0.9,3.4-0.4,5.1-0.6c1,0,2.1-0.9,2.8,0.5
	C149.7,113.7,147.5,113.9,145.3,114.1z"/>
<path class="st23" d="M154,109.8c3.2,0,6.3,0,9.5,0C160.4,110.9,157.2,110.8,154,109.8z"/>
<path class="st24" d="M101.5,113.6c0.4-0.6,1.2-0.3,1.8-0.6c1.8,0.2,3.7-0.2,5.5,0.6c-0.1,0.4-0.4,0.4-0.7,0.5
	C105.8,113.9,103.6,113.8,101.5,113.6z"/>
<path class="st25" d="M91,109.9c2.9,0,5.8,0,8.8,0c0.2,0.1,0.2,0.2,0.2,0.3c-0.1,0.1-0.1,0.2-0.2,0.2c-2.9,0-5.9,0-8.8,0
	c-0.2-0.1-0.2-0.2-0.2-0.3C90.9,109.9,90.9,109.9,91,109.9z"/>
<path class="st26" d="M84.3,110.3c1.3-0.6,2.6-0.5,4-0.4c0.2,0.2,0.6,0.2,0.6,0.6c-1.1,0.5-2.3,0.4-3.4,0.4
	C85.1,110.5,84.5,110.8,84.3,110.3z"/>
<path class="st27" d="M84.3,110.3c0.4,0.2,0.8,0.4,1.2,0.6c-1.6,0-3.3,0-4.9,0c0.5-0.8,1-1.6,2.2-1.6
	C82.1,111.2,83.8,109.9,84.3,110.3z"/>
<path class="st28" d="M147.4,110.3c1.8-1,3.6,0.1,5.4,0.1c-1.1,0.6-2.4,0.5-3.6,0.5C148.6,110.4,147.8,110.9,147.4,110.3z"/>
<path class="st20" d="M102.5,109.9c1.4-0.1,2.7-0.1,4,0.4c-0.6,0.8-1.6,0.1-2.3,0.5c-1.2,0.1-2.4,0.1-3.5-0.4
	C101.2,109.8,102,110.4,102.5,109.9z"/>
<path class="st29" d="M165.7,48.3c0.2-0.2,0.4-0.4,0.5-0.6c0.7,1.5,0.5,3.1,0.1,4.7C166.1,51.1,165.9,49.7,165.7,48.3z"/>
<path class="st30" d="M159.5,173.6c0.2-0.2,0.5-0.5,0.7-0.7c0.8,0.4,1.6,0.9,2.2,2.1C161,174.8,160.1,174.4,159.5,173.6z"/>
<path class="st31" d="M113.5,114.3c1,0.1,2,0.3,2.8,1c-0.1,0.2-0.3,0.4-0.6,0.5c-1-0.2-2-0.3-2.9-0.9
	C112.9,114.5,113.2,114.5,113.5,114.3z"/>
<path class="st32" d="M121.3,117.4c-0.2,0.2-0.4,0.4-0.7,0.6c-0.9-0.2-1.9-0.3-2.3-1.5C119.5,116.3,120.4,116.9,121.3,117.4z"/>
<path class="st33" d="M109.2,176.9c0.6,0.2,1.1,0.4,1.7,0.5c-0.8,0.8-2.2-0.1-2.9,1c-0.3,0-0.5-0.1-0.5-0.5
	C107.8,177.2,108.6,177.2,109.2,176.9z"/>
<path class="st34" d="M169.6,113.4c-1.2,0.4-2.4,0.4-3.8,0C167.1,112.9,168.3,113.1,169.6,113.4z"/>
<path class="st7" d="M139.3,112.1c0.9-0.9,2.1-1,3.3-1.1C141.8,112.4,140.5,111.9,139.3,112.1z"/>
<path class="st35" d="M113.5,114.3c-0.2,0.2-0.4,0.4-0.7,0.6c-0.9-0.2-1.9,0-2.7-0.6c0.1-0.3,0.4-0.4,0.7-0.5
	C111.6,114,112.6,114.1,113.5,114.3z"/>
<path class="st20" d="M143.1,110.9c0.9-0.4,1.8-0.7,2.8-0.5c0.2,0.1,0.2,0.2,0.2,0.3s-0.1,0.1-0.2,0.1
	C145,111,144,112.1,143.1,110.9z"/>
<path class="st36" d="M151.9,113.6c-0.8-0.8-1.9-0.1-2.8-0.5c1.1-0.5,2.2-0.5,3.4-0.4c0,0.3,0,0.6,0,0.9
	C152.3,113.6,152.1,113.6,151.9,113.6z"/>
<path class="st37" d="M105.2,49.5c-0.1-0.1-0.1-0.3,0-0.5c0.9,0.2,1.7,0.4,3.2,0.7C106.9,50.1,106,50.3,105.2,49.5z"/>
<path class="st19" d="M148,41.3c0.2,0,0.4,0,0.5-0.1c0.5,0.7,0.8,1.4,0.7,2.2c-0.2,0.2-0.4,0.2-0.6,0
	C148.5,42.7,147.8,42.1,148,41.3z"/>
<path class="st38" d="M104.2,110.8c0.6-0.6,1.5-0.2,2.3-0.5c0.3,0,0.6,0.1,1,0.1c0,0.2,0,0.3,0,0.5
	C106.4,110.8,105.3,110.8,104.2,110.8z"/>
<path class="st39" d="M113.6,111.5c0.8,0.3,2-0.1,2.1,1.2C114.9,112.5,113.9,112.6,113.6,111.5z"/>
<path class="st38" d="M145.9,110.8c0-0.1,0-0.3,0-0.4c0.5,0,1-0.1,1.5-0.2c0.6,0.2,1.1,0.4,1.7,0.6
	C148.1,110.8,147,110.8,145.9,110.8z"/>
<path d="M115.7,115.8c0.2-0.2,0.4-0.3,0.6-0.5c0.7,0,1.2,0.4,1.7,0.9C117,116.7,116.4,116,115.7,115.8z"/>
<path class="st40" d="M148.6,43.4c0.2,0,0.4,0,0.6,0c0.6,0.7,0.6,1.4,0.4,2.2h-0.3C149.1,44.8,148.9,44.1,148.6,43.4z"/>
<path class="st41" d="M102.5,109.9c-0.6,0.2-1.1,0.4-1.7,0.6c-0.3,0-0.6-0.1-1-0.1c0-0.2,0-0.3,0-0.5
	C100.7,109.9,101.6,109.9,102.5,109.9z"/>
<path class="st42" d="M110.7,113.8c-0.2,0.2-0.4,0.3-0.7,0.5c-0.7,0-1.4-0.1-2.1-0.2c0.2-0.2,0.5-0.4,0.7-0.5
	C109.4,113.6,110.1,113.7,110.7,113.8z"/>
<path class="st43" d="M88.9,110.5c-0.2-0.2-0.4-0.4-0.6-0.6c0.9,0,1.8,0,2.7,0c0,0.2,0,0.3,0,0.5C90.3,110.4,89.6,110.4,88.9,110.5z
	"/>
<path class="st9" d="M150.6,50.6c-0.5-0.6-0.4-1.2-0.2-1.8C151.1,49.4,150.8,50,150.6,50.6z"/>
<path class="st44" d="M149.3,45.6h0.3c0.9,0.4,0.6,1.1,0.6,1.8C149.3,47,149.8,46.1,149.3,45.6z"/>
<path class="st18" d="M132.7,110.4c0.4,0.5,0.7,1.1,1,1.6C132.2,111.5,132,111.2,132.7,110.4z"/>
<path class="st18" d="M135.4,109.8c-0.7,0.8-1.7,0.6-2.7,0.6C133.5,109.5,134.5,109.8,135.4,109.8z"/>
</svg>
