<?xml version="1.0"?>
<svg width="450" height="450" xmlns="http://www.w3.org/2000/svg" xmlns:svg="http://www.w3.org/2000/svg" version="1.1" xml:space="preserve">
 <desc>Created with Fabric.js 5.2.4</desc>
 <g class="layer">
  <title>Layer 1</title>
  <g id="c02a0f01-a797-4e89-a69f-2ef2b4ae2ff2" transform="matrix(Infinity NaN NaN Infinity 0 0)"/>
  <g id="a8c17725-9470-443f-99a2-7f6d211b222d" transform="matrix(0.980422 0 0 -0.967311 538.235 538.793)">
   <path d="m-165,779.36c-60,-28 -87,-56 -114,-116c-36,-79 -19,-183 42,-249c33,-36 115,-71 167,-71c52,0 134,35 167,71c34,37 63,110 63,159c0,52 -35,134 -71,167c-37,34 -110,63 -159,63c-27,0 -65,-10 -95,-24zm180,-15c76,-34 125,-113 125,-201c0,-41 -33,-118 -54,-126c-8,-3 -35,4 -60,15c-52,23 -57,38 -26,89c20,32 28,120 14,156c-18,48 -128,57 -159,13c-23,-32 -20,-129 5,-169c31,-51 26,-66 -26,-89c-25,-11 -52,-18 -60,-15c-23,9 -54,86 -54,134c-1,151 159,255 295,193zm-44,-57c29,-14 30,-18 27,-72c-1,-32 -10,-72 -21,-91c-29,-54 -20,-82 38,-110c46,-22 48,-24 30,-37c-23,-17 -81,-34 -115,-34c-34,0 -92,17 -115,34c-18,13 -16,15 30,37c58,28 68,56 37,110c-11,21 -20,57 -21,91c-1,48 2,59 21,72c28,20 51,20 89,0z" fill="rgb(0,0,0)" fill-rule="nonzero" id="svg_2" stroke="rgb(0,0,0)" stroke-dashoffset="0" stroke-miterlimit="4" stroke-width="0" transform="translate(-251.15 -250)"/>
  </g>
 </g>
</svg>